<?xml version="1.0" encoding="UTF-8" standalone="no"?>
<svg
   xmlns:dc="http://purl.org/dc/elements/1.1/"
   xmlns:cc="http://creativecommons.org/ns#"
   xmlns:rdf="http://www.w3.org/1999/02/22-rdf-syntax-ns#"
   xmlns:svg="http://www.w3.org/2000/svg"
   xmlns="http://www.w3.org/2000/svg"
   width="233.0197mm"
   height="356.30222mm"
   viewBox="0 0 233.01969 356.30221"
   version="1.1"
   id="svg4566">
  <defs
     id="defs4560" />
  <metadata
     id="metadata4563">
    <rdf:RDF>
      <cc:Work
         rdf:about="">
        <dc:format>image/svg+xml</dc:format>
        <dc:type
           rdf:resource="http://purl.org/dc/dcmitype/StillImage" />
        <dc:title></dc:title>
      </cc:Work>
    </rdf:RDF>
  </metadata>
  <g
     id="layer1"
     transform="translate(-16.395869,115.36631)">
    <path
       id="path6808"
       style="fill:none;stroke:#333333;stroke-width:10.9285"
       d="M 132.91747,233.24433 C 132.72644,233.24433 132.5313,233.20405 132.34748,233.12042 131.66081,232.80339 131.36184,231.99125 131.67524,231.30611 131.67524,231.30611 171.10198,145.69989 171.10198,145.69989 171.41848,145.01474 172.23476,144.71992 172.91423,145.03127 173.6009,145.34826 173.89931,146.15887 173.58438,146.84351 173.58438,146.84351 134.15973,232.45024 134.15973,232.45024 133.92843,232.9495 133.43328,233.24433 132.91747,233.24433 Z M 233.12644,99.392311 C 232.96587,99.392311 232.80218,99.364972 232.64214,99.304559 232.64214,99.304559 208.89048,90.32338 208.89048,90.32338 208.1857,90.057508 207.83049,89.268594 208.09639,88.562286 208.36435,87.857008 209.14912,87.501797 209.85804,87.767669 209.85804,87.767669 233.60917,96.74729 233.60917,96.74729 234.31392,97.015249 234.66916,97.803634 234.40326,98.508913 234.19724,99.057237 233.67629,99.392311 233.12644,99.392311 Z M 219.25067,150.52112 C 219.03589,150.52112 218.8175,150.47003 218.61509,150.3647 218.61509,150.3647 165.60486,122.44954 165.60486,122.44954 164.9383,122.09795 164.68325,121.2729 165.03278,120.60425 165.38594,119.93978 166.21101,119.68267 166.87963,120.0322 166.87963,120.0322 219.88833,147.9458 219.88833,147.9458 220.55487,148.2974 220.81201,149.124 220.46194,149.79262 220.21618,150.25525 219.74067,150.52112 219.25067,150.52112 Z M 223.40902,108.13702 C 223.36566,108.13702 223.32333,108.13496 223.27994,108.13131 223.27994,108.13131 187.21023,104.7619 187.21023,104.7619 186.45798,104.69273 185.90604,104.02773 185.97524,103.27544 186.04441,102.52319 186.72388,101.96766 187.46167,102.04251 187.46167,102.04251 223.53293,105.40989 223.53293,105.40989 224.28519,105.48115 224.83713,106.14612 224.76793,106.89838 224.70237,107.60468 224.10654,108.13702 223.40902,108.13702 Z M 202.32822,181.24864 C 201.95079,181.24864 201.5775,181.09527 201.30798,180.79324 201.30798,180.79324 155.97109,129.97369 155.97109,129.97369 155.47027,129.4109 155.51777,128.54764 156.08209,128.04476 156.64126,127.54394 157.50502,127.59145 158.00949,128.15424 158.00949,128.15424 203.34638,178.97326 203.34638,178.97326 203.8472,179.53605 203.79969,180.39981 203.2369,180.90218 202.97671,181.13349 202.65039,181.24864 202.32822,181.24864 Z M 132.53336,233.24433 C 132.01755,233.24433 131.52244,232.9495 131.29266,232.45024 131.29266,232.45024 91.868514,146.84351 91.868514,146.84351 91.553048,146.15887 91.851992,145.34826 92.538691,145.03127 93.218129,144.7163 94.032355,145.01474 94.350908,145.69989 94.350908,145.69989 133.77559,231.30611 133.77559,231.30611 134.09052,231.99125 133.79211,232.80339 133.10544,233.12042 132.91956,233.20249 132.72644,233.24433 132.53336,233.24433 Z M 31.439469,99.392311 C 30.881854,99.392311 30.357283,99.047948 30.15491,98.493949 29.898269,97.785584 30.262799,97.000785 30.971164,96.743674 30.971164,96.743674 55.609311,87.762524 55.609311,87.762524 56.321821,87.503854 57.103004,87.869914 57.361674,88.578279 57.618286,89.287173 57.254284,90.070384 56.543861,90.328554 56.543861,90.328554 31.907244,99.310233 31.907244,99.310233 31.752347,99.364972 31.593835,99.392311 31.439469,99.392311 Z M 45.313147,150.52112 C 44.819561,150.52112 44.341967,150.25164 44.098261,149.78336 43.751839,149.11318 44.014125,148.28811 44.684802,147.94219 44.684802,147.94219 98.582048,120.02859 98.582048,120.02859 99.252226,119.68111 100.07368,119.94339 100.42166,120.61354 100.76964,121.28372 100.50736,122.10724 99.83718,122.45472 99.83718,122.45472 45.939404,150.36832 45.939404,150.36832 45.739089,150.47209 45.525868,150.52112 45.313147,150.52112 Z M 38.823152,108.13702 C 38.122018,108.13702 37.524629,107.59954 37.464246,106.88703 37.400718,106.13527 37.956274,105.47389 38.706472,105.40989 38.706472,105.40989 78.000009,102.04251 78.000009,102.04251 78.786837,101.97333 79.413653,102.53404 79.477152,103.28629 79.54118,104.03699 78.985623,104.69996 78.234926,104.76346 78.234926,104.76346 38.941389,108.13131 38.941389,108.13131 38.901643,108.13496 38.861368,108.13702 38.823152,108.13702 Z M 62.576371,181.86199 C 62.252115,181.86199 61.927889,181.74737 61.667661,181.51607 61.102815,181.01319 61.055338,180.14993 61.556156,179.58714 61.556156,179.58714 107.44137,128.15424 107.44137,128.15424 107.94425,127.59145 108.80957,127.54394 109.36874,128.04476 109.93306,128.54764 109.98056,129.4109 109.47975,129.97369 109.47975,129.97369 63.596086,181.40662 63.596086,181.40662 63.325011,181.70918 62.95172,181.86199 62.576371,181.86199 Z M 132.88651,233.24433 C 132.1327,233.24433 131.52035,232.6325 131.52035,231.87819 131.52035,231.87819 131.52035,137.73119 131.52035,137.73119 131.52035,136.97688 132.1327,136.36505 132.88651,136.36505 133.64239,136.36505 134.25265,136.97688 134.25265,137.73119 134.25265,137.73119 134.25265,231.87819 134.25265,231.87819 134.25265,232.6325 133.64239,233.24433 132.88651,233.24433 Z M 132.83022,235.47167 C 132.53851,235.47167 132.24732,235.37927 132.00156,235.1913 132.00156,235.1913 61.747711,181.58371 61.747711,181.58371 61.596431,181.46856 61.47252,181.32298 61.379564,181.15568 61.379564,181.15568 44.114282,149.81432 44.114282,149.81432 44.037849,149.67441 43.985197,149.52108 43.961444,149.36101 43.961444,149.36101 37.533948,107.35739 37.533948,107.35739 37.533948,107.35739 30.3955,98.907515 30.3955,98.907515 30.133185,98.598252 30.023767,98.186245 30.094998,97.784026 30.094998,97.784026 37.480768,56.71646 37.480768,56.71646 37.613969,55.975052 38.324391,55.48714 39.067387,55.612609 39.808795,55.747368 40.302381,56.457791 40.16918,57.200757 40.16918,57.200757 32.898032,97.636362 32.898032,97.636362 32.898032,97.636362 39.868678,105.88901 39.868678,105.88901 40.030806,106.08209 40.138195,106.31548 40.174854,106.56486 40.174854,106.56486 46.626103,148.70891 46.626103,148.70891 46.626103,148.70891 63.634803,179.58561 63.634803,179.58561 63.634803,179.58561 132.82299,232.38107 132.82299,232.38107 132.82299,232.38107 200.92901,179.59079 200.92901,179.59079 200.92901,179.59079 217.91963,148.74142 217.91963,148.74142 217.91963,148.74142 222.04853,106.63765 222.04853,106.63765 222.07952,106.2969 222.23959,105.98399 222.49308,105.75425 222.49308,105.75425 231.69471,97.475792 231.69471,97.475792 231.69471,97.475792 227.48371,57.756313 227.48371,57.756313 227.40522,57.006115 227.94787,56.33388 228.6986,56.25386 229.4689,56.168165 230.121,56.718019 230.20105,57.468746 230.20105,57.468746 234.48534,97.882126 234.48534,97.882126 234.53079,98.317358 234.36505,98.749003 234.04079,99.042274 234.04079,99.042274 224.71528,107.43174 224.71528,107.43174 224.71528,107.43174 220.61166,149.28819 220.61166,149.28819 220.59308,149.47201 220.53835,149.65066 220.44954,149.81432 220.44954,149.81432 203.18578,181.15568 203.18578,181.15568 203.09494,181.31934 202.97309,181.46341 202.82695,181.57648 202.82695,181.57648 133.6682,235.1841 133.6682,235.1841 133.42038,235.37562 133.12502,235.47167 132.83022,235.47167 Z M 150.67431,44.325098 C 150.25195,44.325098 149.83324,44.128399 149.56734,43.758724 149.12435,43.146901 149.26117,42.294487 149.87299,41.851994 149.87299,41.851994 163.52107,31.985388 163.52107,31.985388 164.13134,31.544453 164.98737,31.679212 165.42777,32.291035 165.87076,32.903388 165.73395,33.75733 165.12212,34.199823 165.12212,34.199823 151.47407,44.066429 151.47407,44.066429 151.23192,44.239934 150.95156,44.325098 150.67431,44.325098 Z M 132.88651,103.47011 C 132.1327,103.47011 131.52035,102.85829 131.52035,102.10448 131.52035,102.10448 131.52035,87.154317 131.52035,87.154317 131.52035,86.399974 132.1327,85.78815 132.88651,85.78815 133.64239,85.78815 134.25265,86.399974 134.25265,87.154317 134.25265,87.154317 134.25265,102.10448 134.25265,102.10448 134.25265,102.85829 133.64239,103.47011 132.88651,103.47011 Z M 123.55374,108.13702 C 123.06739,108.13702 122.59547,107.87629 122.34764,107.41727 121.99293,106.75227 122.24231,105.92358 122.90735,105.56684 122.90735,105.56684 132.47862,100.42855 132.47862,100.42855 132.89013,100.20654 133.39301,100.21168 133.8009,100.44507 133.8009,100.44507 142.78616,105.58489 142.78616,105.58489 143.44188,105.96027 143.6675,106.7946 143.29421,107.44826 142.91886,108.10036 142.0845,108.33166 141.43087,107.95628 141.43087,107.95628 133.10338,103.19336 133.10338,103.19336 133.10338,103.19336 124.19861,107.97489 124.19861,107.97489 123.99468,108.08384 123.77214,108.13702 123.55374,108.13702 Z M 136.79184,124.08881 C 136.73349,124.08881 136.67308,124.08523 136.61166,124.07799 135.86455,123.97936 135.33637,123.29267 135.43655,122.54608 135.43655,122.54608 136.85381,111.73411 136.85381,111.73411 136.88477,111.49713 136.97567,111.27512 137.11971,111.08563 137.11971,111.08563 141.01937,105.94581 141.01937,105.94581 141.41074,105.43002 142.11187,105.25914 142.69324,105.53586 142.69324,105.53586 151.90775,109.90896 151.90775,109.90896 152.58877,110.23321 152.88048,111.04744 152.55626,111.73049 152.23353,112.41152 151.42139,112.70323 150.73625,112.37898 150.73625,112.37898 142.52544,108.48088 142.52544,108.48088 142.52544,108.48088 139.51486,112.44818 139.51486,112.44818 139.51486,112.44818 138.14302,122.90132 138.14302,122.90132 138.05423,123.58799 137.46769,124.08881 136.79184,124.08881 Z M 128.8686,124.08881 C 128.19277,124.08881 127.60623,123.58799 127.51692,122.90132 127.51692,122.90132 126.14352,112.44818 126.14352,112.44818 126.14352,112.44818 123.1345,108.48088 123.1345,108.48088 123.1345,108.48088 114.92213,112.37898 114.92213,112.37898 114.23905,112.70114 113.42844,112.41152 113.10215,111.72844 112.77842,111.04744 113.0717,110.23321 113.75269,109.90896 113.75269,109.90896 122.96723,105.53586 122.96723,105.53586 123.54807,105.25914 124.24923,105.43002 124.64107,105.94581 124.64107,105.94581 128.54075,111.08563 128.54075,111.08563 128.6848,111.27512 128.77567,111.49713 128.8046,111.73411 128.8046,111.73411 130.22544,122.54608 130.22544,122.54608 130.32407,123.29267 129.79744,123.97936 129.0488,124.07799 128.98889,124.08523 128.92848,124.08881 128.8686,124.08881 Z M 146.83298,17.953198 C 146.83298,17.953198 121.07135,17.953198 121.07135,17.953198 120.31703,17.953198 119.70518,17.340845 119.70518,16.587061 119.70518,15.832718 120.31703,15.220895 121.07135,15.220895 121.07135,15.220895 146.83298,15.220895 146.83298,15.220895 147.58732,15.220895 148.19912,15.832718 148.19912,16.587061 148.19912,17.340845 147.58732,17.953198 146.83298,17.953198 Z M 151.56544,45.742387 C 150.91337,45.742387 150.33562,45.270467 150.22097,44.605963 150.22097,44.605963 145.48542,16.816304 145.48542,16.816304 145.46167,16.669139 145.45961,16.519388 145.48542,16.372253 145.48542,16.372253 151.62894,-22.014103 151.62894,-22.014103 151.74718,-22.757598 152.44678,-23.265619 153.1918,-23.147411 153.93686,-23.028674 154.44282,-22.327511 154.32458,-21.582487 154.32458,-21.582487 148.21773,16.579829 148.21773,16.579829 148.21773,16.579829 152.91509,44.147008 152.91509,44.147008 153.04052,44.889944 152.54126,45.594723 151.79674,45.72222 151.71828,45.735155 151.64184,45.742387 151.56544,45.742387 Z M 114.9273,44.325098 C 114.82559,44.325098 114.71973,44.312722 114.61595,44.288969 113.88178,44.117551 113.42485,43.383875 113.59627,42.647611 113.59627,42.647611 119.68146,16.537996 119.68146,16.537996 119.68146,16.537996 113.57766,-21.582487 113.57766,-21.582487 113.45945,-22.327511 113.96594,-23.028674 114.71097,-23.147411 115.46269,-23.265619 116.15506,-22.757598 116.2733,-22.014103 116.2733,-22.014103 122.4189,16.372253 122.4189,16.372253 122.44833,16.546786 122.44266,16.725406 122.40238,16.898382 122.40238,16.898382 116.25731,43.268754 116.25731,43.268754 116.10965,43.899156 115.54842,44.325098 114.9273,44.325098 Z M 228.84261,29.200404 C 228.44919,29.200404 228.05735,29.028987 227.78783,28.703202 227.78783,28.703202 203.43931,-0.83676223 203.43931,-0.83676223 202.96016,-1.4196583 203.04226,-2.2808616 203.62519,-2.7600134 204.20756,-3.2391358 205.06773,-3.1570577 205.54841,-2.5741323 205.54841,-2.5741323 229.89693,26.963775 229.89693,26.963775 230.37605,27.546171 230.29398,28.407874 229.71105,28.886996 229.456,29.096631 229.14826,29.200404 228.84261,29.200404 Z M 234.24837,56.998883 C 234.00413,56.998883 233.7584,56.934885 233.54,56.802184 233.54,56.802184 202.96377,38.278125 202.96377,38.278125 202.31893,37.886784 202.11136,37.046718 202.50273,36.402381 202.8946,35.757514 203.73619,35.551496 204.37897,35.941308 204.37897,35.941308 230.77877,51.933409 230.77877,51.933409 230.77877,51.933409 184.82438,-36.17382 184.82438,-36.17382 184.50168,-36.791317 184.69685,-37.550805 185.27408,-37.939089 185.85339,-38.326814 186.62734,-38.219424 187.07753,-37.687651 187.07753,-37.687651 243.59249,29.078052 243.59249,29.078052 244.07834,29.653745 244.00758,30.515448 243.43192,31.003361 242.85623,31.491802 241.99658,31.418984 241.50661,30.84332 241.50661,30.84332 192.92213,-26.553478 192.92213,-26.553478 192.92213,-26.553478 235.45961,55.002344 235.45961,55.002344 235.74206,55.544965 235.63103,56.209969 235.18286,56.629208 234.92213,56.872915 234.5855,56.998883 234.24837,56.998883 Z M 164.31875,-10.89801 C 164.03115,-10.89801 163.73791,-10.990965 163.49009,-11.180433 162.89064,-11.639447 162.77808,-12.497564 163.23709,-13.096452 163.23709,-13.096452 183.56202,-39.645474 183.56202,-39.645474 184.01947,-40.242833 184.87706,-40.359512 185.47801,-39.898969 186.07745,-39.439984 186.19055,-38.583955 185.73153,-37.984508 185.73153,-37.984508 165.40608,-11.435487 165.40608,-11.435487 165.13862,-11.083891 164.73025,-10.89801 164.31875,-10.89801 Z M 226.94985,-5.7798841 C 226.6659,-5.7798841 226.37986,-5.8676654 226.13406,-6.0514593 226.13406,-6.0514593 183.82792,-37.720165 183.82792,-37.720165 183.37252,-38.063 183.17582,-38.649512 183.33639,-39.197307 183.33639,-39.197307 203.66132,-108.91782 203.66132,-108.91782 203.87092,-109.64274 204.62679,-110.05628 205.35533,-109.84667 206.07816,-109.63551 206.49534,-108.87755 206.28262,-108.15266 206.28262,-108.15266 186.22306,-39.341385 186.22306,-39.341385 186.22306,-39.341385 227.76975,-8.2390539 227.76975,-8.2390539 228.37434,-7.7872713 228.49825,-6.9312419 228.04647,-6.3266504 227.77698,-5.9678231 227.36703,-5.7798841 226.94985,-5.7798841 Z M 188.13391,104.76914 C 187.3997,104.76914 186.79514,104.18986 186.7693,103.45203 186.7693,103.45203 186.11773,85.551176 186.11773,85.551176 186.0883,84.795305 186.67843,84.163315 187.43277,84.135975 188.2759,84.08691 188.8206,84.697205 188.84592,85.451019 188.84592,85.451019 189.49798,103.35188 189.49798,103.35188 189.52535,104.10775 188.93728,104.73971 188.18297,104.76708 188.16489,104.76914 188.14834,104.76914 188.13391,104.76914 Z M 210.17298,90.410632 C 209.66855,90.410632 209.18219,90.130297 208.94363,89.646 208.94363,89.646 194.9951,61.151533 194.9951,61.151533 194.79993,60.752431 194.81287,60.28104 195.02609,59.891257 195.24087,59.501415 195.6343,59.240687 196.0752,59.19371 196.0752,59.19371 223.2598,56.25386 223.2598,56.25386 223.99762,56.173839 224.68429,56.714403 224.76587,57.46513 224.84642,58.215298 224.30324,58.889092 223.5546,58.969641 223.5546,58.969641 198.30619,61.699857 198.30619,61.699857 198.30619,61.699857 211.39868,88.445578 211.39868,88.445578 211.73014,89.122987 211.44981,89.9408 210.77243,90.272258 210.57931,90.367271 210.37329,90.410632 210.17298,90.410632 Z M 183.46545,56.614245 C 183.30179,56.614245 183.13608,56.585347 182.97756,56.524935 182.97756,56.524935 150.83488,44.23426 150.83488,44.23426 150.1301,43.964713 149.77645,43.175828 150.04597,42.471049 150.31601,41.7663 151.10284,41.411059 151.80915,41.682664 151.80915,41.682664 183.17426,53.674395 183.17426,53.674395 183.17426,53.674395 202.75984,36.092589 202.75984,36.092589 203.31901,35.588155 204.18433,35.631546 204.68671,36.196362 205.1932,36.757092 205.14572,37.622411 204.58499,38.126845 204.58499,38.126845 184.3778,56.266236 184.3778,56.266236 184.12322,56.49395 183.79693,56.614245 183.46545,56.614245 Z M 182.5769,21.901886 C 181.92275,21.901886 181.34552,21.432054 181.23037,20.765521 181.10491,20.022026 181.60572,19.315219 182.34922,19.18975 182.34922,19.18975 190.84401,17.741506 190.84401,17.741506 191.58904,17.619652 192.29379,18.115326 192.41976,18.858292 192.54525,19.601229 192.04596,20.308065 191.303,20.434034 191.303,20.434034 182.8082,21.881749 182.8082,21.881749 182.72971,21.896213 182.65331,21.901886 182.5769,21.901886 Z M 171.23674,22.257127 C 171.21299,22.257127 171.19079,22.257127 171.16757,22.255069 170.41323,22.21891 169.83395,21.575602 169.87057,20.823346 169.87057,20.823346 171.22898,-6.2682962 171.22898,-6.2682962 171.26925,-7.02211 171.91051,-7.584898 172.66073,-7.5647607 173.41502,-7.5265437 173.99588,-6.8837354 173.95767,-6.1314796 173.95767,-6.1314796 172.59876,20.960163 172.59876,20.960163 172.5626,21.688665 171.95957,22.257127 171.23674,22.257127 Z M 162.81423,34.361951 C 162.81423,34.361951 171.23468,20.535749 171.23468,20.535749 171.23468,20.535749 183.46545,20.003976 183.46545,20.003976 183.46545,20.003976 176.64041,32.234739 176.64041,32.234739 176.64041,32.234739 162.81423,34.361951 162.81423,34.361951 Z M 172.59359,100.80907 C 172.22909,100.80907 171.86661,100.66552 171.59557,100.37743 171.08184,99.827573 171.10921,98.962224 171.66113,98.446972 171.66113,98.446972 186.29585,84.739008 186.29585,84.739008 186.29585,84.739008 202.15525,37.33843 202.15525,37.33843 202.15525,37.33843 171.48403,-5.4029772 171.48403,-5.4029772 171.04519,-6.0168583 171.18562,-6.8693011 171.79744,-7.3102067 172.41341,-7.7506418 173.26374,-7.6086219 173.70467,-6.996828 173.70467,-6.996828 204.78169,36.313041 204.78169,36.313041 205.0383,36.669811 205.1075,37.127267 204.96704,37.542391 204.96704,37.542391 188.77671,85.933757 188.77671,85.933757 188.70545,86.148536 188.58204,86.343707 188.41633,86.498573 188.41633,86.498573 173.52811,100.44145 173.52811,100.44145 173.26374,100.68878 172.92866,100.80907 172.59359,100.80907 Z M 37.407979,29.200404 C 37.101803,29.200404 36.794069,29.096631 36.539015,28.886996 35.956119,28.407874 35.874541,27.546171 36.351576,26.963775 36.351576,26.963775 60.702184,-2.5741323 60.702184,-2.5741323 61.181307,-3.1570577 62.04251,-3.2391358 62.623877,-2.7600134 63.208332,-2.2808616 63.290439,-1.4196583 62.811287,-0.83676223 62.811287,-0.83676223 38.462795,28.703202 38.462795,28.703202 38.191191,29.028987 37.79985,29.200404 37.407979,29.200404 Z M 30.788899,57.559584 C 30.446593,57.559584 30.109461,57.432087 29.847176,57.184235 29.403154,56.761909 29.293677,56.095348 29.583332,55.552726 29.583332,55.552726 73.151371,-26.425951 73.151371,-26.425951 73.151371,-26.425951 24.264861,30.846906 24.264861,30.846906 23.772833,31.4226 22.913159,31.489715 22.337495,30.999745 21.765946,30.509774 21.696244,29.648571 22.186214,29.074436 22.186214,29.074436 79.175091,-37.692795 79.175091,-37.692795 79.628432,-38.22304 80.405999,-38.326814 80.981692,-37.935473 81.558915,-37.543573 81.746824,-36.778941 81.42054,-36.16503 81.42054,-36.16503 34.302385,52.490494 34.302385,52.490494 34.302385,52.490494 61.87318,35.937693 61.87318,35.937693 62.518046,35.549938 63.359582,35.76113 63.747337,36.405997 64.135621,37.05395 63.925986,37.891929 63.279591,38.280183 63.279591,38.280183 31.49212,57.364943 31.49212,57.364943 31.273725,57.496085 31.031047,57.559584 30.788899,57.559584 Z M 101.92823,-10.89801 C 101.51828,-10.89801 101.11039,-11.083891 100.84246,-11.435487 100.84246,-11.435487 80.517504,-37.984508 80.517504,-37.984508 80.058519,-38.583955 80.171082,-39.439984 80.770529,-39.898969 81.369947,-40.359512 82.229592,-40.242833 82.686519,-39.645474 82.686519,-39.645474 103.01195,-13.096452 103.01195,-13.096452 103.47096,-12.497564 103.3579,-11.639447 102.75845,-11.180433 102.51063,-10.990965 102.21739,-10.89801 101.92823,-10.89801 Z M 38.826767,-5.7798841 C 38.405999,-5.7798841 37.994491,-5.971439 37.726532,-6.3318244 37.276807,-6.9384737 37.406421,-7.7945031 38.012571,-8.2426698 38.012571,-8.2426698 80.018244,-39.341385 80.018244,-39.341385 80.018244,-39.341385 59.496088,-108.14543 59.496088,-108.14543 59.279751,-108.86826 59.691259,-109.62828 60.41253,-109.84461 61.148264,-110.06351 61.898961,-109.64994 62.11374,-108.92505 62.11374,-108.92505 82.910588,-39.205068 82.910588,-39.205068 83.074803,-38.653127 82.876016,-38.059384 82.414944,-37.716549 82.414944,-37.716549 39.637377,-6.0478434 39.637377,-6.0478434 39.393171,-5.8656075 39.107662,-5.7798841 38.826767,-5.7798841 Z M 78.116688,104.76914 C 78.100167,104.76914 78.085703,104.76914 78.067624,104.76708 77.31331,104.73971 76.72524,104.10775 76.752609,103.35188 76.752609,103.35188 77.40265,85.451019 77.40265,85.451019 77.427932,84.698763 77.996393,84.094171 78.816293,84.135975 79.570107,84.163315 80.158677,84.795305 80.131307,85.551176 80.131307,85.551176 79.480767,103.45203 79.480767,103.45203 79.455456,104.18986 78.850865,104.76914 78.116688,104.76914 Z M 56.075557,90.410632 C 55.873684,90.410632 55.669723,90.367271 55.476639,90.272258 54.797172,89.9408 54.518365,89.122987 54.849853,88.445578 54.849853,88.445578 68.157127,61.257393 68.157127,61.257393 68.157127,61.257393 42.721276,58.973257 42.721276,58.973257 41.96902,58.905613 41.415022,58.241109 41.482666,57.490412 41.549781,56.738156 42.181742,56.173839 42.964953,56.251802 42.964953,56.251802 70.380851,58.71253 70.380851,58.71253 70.829018,58.752775 71.22812,59.011445 71.448573,59.402815 71.669055,59.794685 71.683519,60.270192 71.48679,60.674468 71.48679,60.674468 57.303319,89.646 57.303319,89.646 57.068403,90.130297 56.579991,90.410632 56.075557,90.410632 Z M 82.785119,56.614245 C 82.453661,56.614245 82.125789,56.49395 81.872293,56.266236 81.872293,56.266236 61.664045,38.126845 61.664045,38.126845 61.100757,37.622411 61.055338,36.757092 61.558214,36.196362 62.066263,35.633604 62.927966,35.589713 63.488697,36.092589 63.488697,36.092589 83.076332,53.674395 83.076332,53.674395 83.076332,53.674395 114.43939,41.682664 114.43939,41.682664 115.14414,41.414675 115.93305,41.7663 116.20051,42.471049 116.47209,43.175828 116.11685,43.964713 115.41366,44.23426 115.41366,44.23426 83.271503,56.524935 83.271503,56.524935 83.112991,56.585347 82.948805,56.614245 82.785119,56.614245 Z M 83.672163,21.901886 C 83.595229,21.901886 83.518795,21.896213 83.440833,21.881749 83.440833,21.881749 74.947595,20.434034 74.947595,20.434034 74.2041,20.306536 73.703312,19.601229 73.830809,18.858292 73.958366,18.115326 74.666731,17.618124 75.406581,17.741506 75.406581,17.741506 83.899847,19.18975 83.899847,19.18975 84.642813,19.317277 85.143631,20.022026 85.016104,20.765521 84.903041,21.432054 84.324231,21.901886 83.672163,21.901886 Z M 95.013853,22.965492 C 94.288937,22.965492 93.685904,22.39706 93.651303,21.66697 93.651303,21.66697 92.290869,-6.1335375 92.290869,-6.1335375 92.25471,-6.8858226 92.835578,-7.528631 93.587804,-7.5647607 94.350908,-7.5998614 94.984926,-7.0205813 95.019527,-6.2662383 95.019527,-6.2662383 96.37999,21.533799 96.37999,21.533799 96.416649,22.286025 95.835311,22.927275 95.083026,22.963934 95.059302,22.965492 95.035519,22.965492 95.013853,22.965492 Z M 114.92369,44.325098 C 114.64538,44.325098 114.36296,44.239934 114.11875,44.061284 114.11875,44.061284 100.64779,34.194649 100.64779,34.194649 100.03905,33.748569 99.90794,32.894098 100.35246,32.283803 100.79701,31.677125 101.65098,31.540837 102.26331,31.990533 102.26331,31.990533 115.7343,41.857168 115.7343,41.857168 116.3425,42.30169 116.47365,43.157748 116.0296,43.765956 115.76011,44.130457 115.34654,44.325098 114.92369,44.325098 Z M 103.4343,34.361951 C 103.4343,34.361951 95.013853,20.535749 95.013853,20.535749 95.013853,20.535749 82.783061,20.003976 82.783061,20.003976 82.783061,20.003976 89.60813,32.234739 89.60813,32.234739 89.60813,32.234739 103.4343,34.361951 103.4343,34.361951 Z M 93.654919,100.80907 C 93.321932,100.80907 92.984771,100.68878 92.722485,100.44145 92.722485,100.44145 77.832707,86.498573 77.832707,86.498573 77.666964,86.343707 77.543053,86.148536 77.471822,85.933757 77.471822,85.933757 61.281464,37.542391 61.281464,37.542391 61.141032,37.127267 61.210234,36.669811 61.467346,36.313041 61.467346,36.313041 92.545894,-6.996828 92.545894,-6.996828 92.984771,-7.6086219 93.837184,-7.7526996 94.453152,-7.3102067 95.064976,-6.8693011 95.205408,-6.0168583 94.766031,-5.4029772 94.766031,-5.4029772 64.093788,37.33843 64.093788,37.33843 64.093788,37.33843 79.952688,84.739008 79.952688,84.739008 79.952688,84.739008 94.58944,98.446972 94.58944,98.446972 95.14138,98.962224 95.168749,99.827573 94.653468,100.37743 94.38398,100.66552 94.021007,100.80907 93.654919,100.80907 Z M 157.10798,130.43111 C 157.10798,130.43111 108.4595,130.43111 108.4595,130.43111 107.70572,130.43111 107.09337,129.81879 107.09337,129.06498 107.09337,128.31066 107.70572,127.69884 108.4595,127.69884 108.4595,127.69884 157.10798,127.69884 157.10798,127.69884 157.86182,127.69884 158.47362,128.31066 158.47362,129.06498 158.47362,129.81879 157.86182,130.43111 157.10798,130.43111 Z M 132.53336,125.62587 C 132.35471,125.62587 132.1745,125.59127 132.00514,125.51848 132.00514,125.51848 118.77066,119.96509 118.77066,119.96509 118.51922,119.85923 118.306,119.68267 118.15678,119.45498 118.15678,119.45498 110.94966,108.46486 110.94966,108.46486 110.77827,108.20413 110.70184,107.89434 110.73076,107.58299 110.73076,107.58299 111.6761,97.892944 111.6761,97.892944 111.74892,97.142776 112.41389,96.598067 113.16774,96.66724 113.91843,96.740058 114.46829,97.408648 114.39394,98.158875 114.39394,98.158875 113.49764,107.36977 113.49764,107.36977 113.49764,107.36977 120.21323,117.60814 120.21323,117.60814 120.21323,117.60814 132.53336,122.77741 132.53336,122.77741 132.53336,122.77741 144.85499,117.60814 144.85499,117.60814 144.85499,117.60814 151.567,107.37338 151.567,107.37338 151.567,107.37338 150.67275,98.878588 150.67275,98.878588 150.59426,98.12789 151.13897,97.456184 151.8897,97.375634 152.62905,97.315722 153.31004,97.842351 153.39009,98.592549 153.39009,98.592549 154.33543,107.57217 154.33543,107.57217 154.36642,107.88714 154.29001,108.20257 154.11909,108.46486 154.11909,108.46486 146.91147,119.45498 146.91147,119.45498 146.76225,119.68267 146.54747,119.85923 146.29756,119.96509 146.29756,119.96509 133.06152,125.51848 133.06152,125.51848 132.89219,125.59127 132.71354,125.62587 132.53336,125.62587 Z M 172.59359,100.80907 C 172.57915,100.80907 172.56416,100.80907 172.54814,100.80907 172.54814,100.80907 151.98574,100.10068 151.98574,100.10068 151.23192,100.07539 150.64177,99.442934 150.66552,98.68912 150.69289,97.934807 151.24639,97.302817 152.07866,97.370461 152.07866,97.370461 172.64057,98.078826 172.64057,98.078826 173.39491,98.104637 173.98504,98.736627 173.95973,99.490441 173.93391,100.22976 173.32726,100.80907 172.59359,100.80907 Z M 93.65339,100.80907 C 92.946554,100.80907 92.347107,100.2628 92.292927,99.543092 92.238189,98.791336 92.804593,98.13718 93.556848,98.080913 93.556848,98.080913 112.93488,96.663624 112.93488,96.663624 113.68713,96.614589 114.34285,97.173761 114.39756,97.926017 114.4523,98.679801 113.88745,99.333986 113.13519,99.388695 113.13519,99.388695 93.755106,100.80751 93.755106,100.80751 93.722592,100.80907 93.687991,100.80907 93.65339,100.80907 Z M 152.03169,100.10068 C 151.67439,100.10068 151.32123,99.960244 151.05689,99.692814 151.05689,99.692814 140.83143,89.295933 140.83143,89.295933 140.83143,89.295933 132.76105,88.536446 132.76105,88.536446 132.76105,88.536446 126.04337,89.128661 126.04337,89.128661 126.04337,89.128661 113.90191,99.082549 113.90191,99.082549 113.45219,99.450666 112.81817,99.496114 112.32303,99.191967 111.82738,98.889436 111.57594,98.304981 111.69985,97.73652 111.69985,97.73652 118.51408,66.251638 118.51408,66.251638 118.51408,66.251638 117.10611,43.04104 117.10611,43.04104 117.06222,42.288784 117.63426,41.640302 118.39017,41.594883 119.07839,41.542202 119.78882,42.12304 119.83427,42.875325 119.83427,42.875325 121.25308,66.275362 121.25308,66.275362 121.26031,66.399302 121.24947,66.524742 121.22418,66.646595 121.22418,66.646595 115.20044,94.485349 115.20044,94.485349 115.20044,94.485349 124.6354,86.747983 124.6354,86.747983 124.84865,86.575007 125.10937,86.469176 125.38251,86.443864 125.38251,86.443864 132.29483,85.835128 132.29483,85.835128 132.40945,85.804143 132.52766,85.78815 132.65157,85.78815 132.65157,85.78815 132.88651,85.78815 132.88651,85.78815 133.0161,85.78815 133.14001,85.80623 133.25981,85.838744 133.25981,85.838744 141.58368,86.621985 141.58368,86.621985 141.90432,86.65297 142.20483,86.795489 142.43095,87.024703 142.43095,87.024703 149.88951,94.60923 149.88951,94.60923 149.88951,94.60923 144.77859,66.603204 144.77859,66.603204 144.75845,66.493786 144.75331,66.384309 144.75845,66.275362 144.75845,66.275362 146.17571,42.875325 146.17571,42.875325 146.22322,42.12304 146.92799,41.560282 147.6219,41.594883 148.37571,41.640302 148.94985,42.288784 148.9039,43.04104 148.9039,43.04104 147.49643,66.275362 147.49643,66.275362 147.49643,66.275362 153.37769,98.490333 153.37769,98.490333 153.48302,99.080491 153.19336,99.670619 152.66156,99.947868 152.4633,100.05164 152.24647,100.10068 152.03169,100.10068 Z M 166.37158,122.77174 C 166.24973,122.77174 166.12582,122.75366 165.99985,122.71906 165.27493,122.51307 164.85052,121.75926 165.0581,121.03228 165.0581,121.03228 171.11436,99.658213 171.11436,99.658213 171.11436,99.658213 155.6035,75.121782 155.6035,75.121782 155.50693,74.970502 155.44137,74.801142 155.41191,74.62458 155.41191,74.62458 149.97523,43.19232 149.97523,43.19232 149.84768,42.447296 150.34488,41.74046 151.08993,41.611404 151.82205,41.487493 152.53974,41.983137 152.66879,42.726103 152.66879,42.726103 158.05852,73.892462 158.05852,73.892462 158.05852,73.892462 173.74803,98.714402 173.74803,98.714402 173.95611,99.042274 174.01393,99.442934 173.90863,99.816725 173.90863,99.816725 167.6866,121.77731 167.6866,121.77731 167.51521,122.37831 166.96688,122.77174 166.37158,122.77174 Z M 99.206777,122.60805 C 98.59857,122.60805 98.043043,122.19605 97.88606,121.57905 97.88606,121.57905 92.332673,99.782124 92.332673,99.782124 92.239747,99.417623 92.300129,99.031426 92.502032,98.714402 92.502032,98.714402 108.19001,73.892462 108.19001,73.892462 108.19001,73.892462 113.57974,42.726103 113.57974,42.726103 113.7088,41.983137 114.4301,41.485935 115.1586,41.611404 115.90207,41.74046 116.40083,42.447296 116.27177,43.19232 116.27177,43.19232 110.83659,74.62458 110.83659,74.62458 110.80561,74.801142 110.74005,74.970502 110.64557,75.121782 110.64557,75.121782 95.124859,99.676263 95.124859,99.676263 95.124859,99.676263 100.53267,120.90476 100.53267,120.90476 100.71855,121.63532 100.27761,122.37831 99.547554,122.56416 99.432933,122.59515 99.31984,122.60805 99.206777,122.60805 Z M 151.32279,44.325098 C 151.32279,44.325098 114.92574,44.325098 114.92574,44.325098 114.38104,44.325098 113.88901,44.000872 113.67267,43.502112 113.67267,43.502112 92.401875,-5.6580309 92.401875,-5.6580309 92.148849,-6.242485 92.33473,-6.9240101 92.848454,-7.300917 92.848454,-7.300917 114.11875,-22.899589 114.11875,-22.899589 114.72902,-23.347726 115.58302,-23.214526 116.02754,-22.606318 116.47365,-21.998111 116.3425,-21.14364 115.7343,-20.695473 115.7343,-20.695473 95.341725,-5.7437544 95.341725,-5.7437544 95.341725,-5.7437544 115.82361,41.593325 115.82361,41.593325 115.82361,41.593325 150.42493,41.593325 150.42493,41.593325 150.42493,41.593325 170.92489,-5.7819419 170.92489,-5.7819419 170.92489,-5.7819419 152.12614,-20.730074 152.12614,-20.730074 151.53601,-21.198349 151.43794,-22.057994 151.90775,-22.648151 152.37761,-23.238279 153.23931,-23.334821 153.82738,-22.866546 153.82738,-22.866546 173.44394,-7.2678741 173.44394,-7.2678741 173.92877,-6.8837354 174.09448,-6.2244349 173.84822,-5.6580309 173.84822,-5.6580309 152.57587,43.502112 152.57587,43.502112 152.35953,44.000872 151.86594,44.325098 151.32279,44.325098 Z M 152.97858,-20.431629 C 152.90009,-20.431629 152.82213,-20.438861 152.74214,-20.453325 152.74214,-20.453325 132.90095,-23.903282 132.90095,-23.903282 132.90095,-23.903282 115.18803,-20.456941 115.18803,-20.456941 114.50136,-20.329414 113.83115,-20.726458 113.62155,-21.387846 113.62155,-21.387846 100.62404,-62.748653 100.62404,-62.748653 100.39791,-63.467865 100.79701,-64.234585 101.51828,-64.460741 102.23388,-64.686338 103.00421,-64.287765 103.23037,-63.568023 103.23037,-63.568023 115.86385,-23.373038 115.86385,-23.373038 115.86385,-23.373038 132.62629,-26.633528 132.62629,-26.633528 132.79359,-26.664483 132.9593,-26.664483 133.12143,-26.637114 133.12143,-26.637114 151.97489,-23.358574 151.97489,-23.358574 151.97489,-23.358574 162.52664,-63.504524 162.52664,-63.504524 162.71972,-64.234585 163.47921,-64.66623 164.19483,-64.478791 164.92334,-64.285707 165.36221,-63.539125 165.16963,-62.810593 165.16963,-62.810593 154.29721,-21.451344 154.29721,-21.451344 154.13717,-20.841079 153.58885,-20.431629 152.97858,-20.431629 Z M 132.88651,139.09733 C 132.73368,139.09733 132.57878,139.07152 132.43112,139.01886 132.43112,139.01886 108.0026,130.35265 108.0026,130.35265 107.84768,130.29794 107.70363,130.21428 107.57819,130.10845 107.57819,130.10845 76.466571,103.79643 76.466571,103.79643 76.466571,103.79643 55.336207,90.193796 55.336207,90.193796 55.104877,90.044573 54.924699,89.829824 54.81731,89.57474 54.81731,89.57474 41.892087,58.876715 41.892087,58.876715 41.892087,58.876715 30.628859,57.550824 30.628859,57.550824 30.242662,57.504875 29.894682,57.297299 29.670614,56.978746 29.446516,56.661752 29.370082,56.262649 29.457363,55.884184 29.457363,55.884184 35.619487,29.482827 35.619487,29.482827 35.619487,29.482827 23.42844,31.311065 23.42844,31.311065 22.944144,31.378709 22.450558,31.189242 22.147998,30.799429 21.843879,30.409617 21.774707,29.885046 21.966261,29.431734 21.966261,29.431734 37.468392,-7.4449653 37.468392,-7.4449653 37.468392,-7.4449653 40.058175,-80.457956 40.058175,-80.457956 40.069023,-80.718713 40.151101,-80.971709 40.298765,-81.186488 40.298765,-81.186488 59.680411,-109.31125 59.680411,-109.31125 59.916856,-109.65359 60.297908,-109.87042 60.713032,-109.89932 61.131742,-109.92513 61.538076,-109.76095 61.816883,-109.45115 61.816883,-109.45115 102.35059,-64.724555 102.35059,-64.724555 102.35059,-64.724555 111.91311,-67.768179 111.91311,-67.768179 112.04578,-67.81207 112.18624,-67.832207 112.32664,-67.832207 112.32664,-67.832207 112.3282,-67.832207 112.3282,-67.832207 112.3282,-67.832207 151.02796,-67.773853 151.02796,-67.773853 151.14103,-67.773853 151.25359,-67.758889 151.36304,-67.732049 151.36304,-67.732049 163.38784,-64.682752 163.38784,-64.682752 163.38784,-64.682752 203.96026,-109.45115 203.96026,-109.45115 204.24063,-109.76095 204.65211,-109.92307 205.06206,-109.89932 205.47921,-109.87042 205.85976,-109.65359 206.09673,-109.31125 206.09673,-109.31125 225.47629,-81.186488 225.47629,-81.186488 225.62396,-80.969651 225.70607,-80.718713 225.71691,-80.457956 225.71691,-80.457956 228.30875,-7.4449653 228.30875,-7.4449653 228.30875,-7.4449653 243.69626,29.165833 243.69626,29.165833 243.8563,29.39146 243.95132,29.664593 243.95132,29.96145 243.95132,30.715793 243.34105,31.327616 242.58515,31.327616 242.57224,31.326058 242.55934,31.327616 242.55058,31.327616 242.48138,31.327616 242.41376,31.322442 242.34665,31.311065 242.34665,31.311065 230.15766,29.482827 230.15766,29.482827 230.15766,29.482827 236.31772,55.884184 236.31772,55.884184 236.40498,56.262649 236.32857,56.661752 236.10242,56.978746 235.88041,57.297299 235.53243,57.504875 235.14623,57.550824 235.14623,57.550824 223.88247,58.876715 223.88247,58.876715 223.88247,58.876715 210.95775,89.57474 210.95775,89.57474 210.85039,89.829824 210.67018,90.044573 210.43888,90.193796 210.43888,90.193796 189.16858,103.90176 189.16858,103.90176 189.16858,103.90176 157.98779,130.1105 157.98779,130.1105 157.86182,130.21428 157.72136,130.29586 157.56855,130.35056 157.56855,130.35056 133.34756,139.01681 133.34756,139.01681 133.19784,139.06999 133.04347,139.09733 132.88651,139.09733 Z M 109.15187,127.86097 C 109.15187,127.86097 132.88651,136.28142 132.88651,136.28142 132.88651,136.28142 156.41769,127.86097 156.41769,127.86097 156.41769,127.86097 187.54892,101.70693 187.54892,101.70693 187.54892,101.70693 208.60288,88.126496 208.60288,88.126496 208.60288,88.126496 221.67524,57.08252 221.67524,57.08252 221.86629,56.629208 222.28709,56.312214 222.77345,56.255388 222.77345,56.255388 233.30867,55.01522 233.30867,55.01522 233.30867,55.01522 227.03919,28.14406 227.03919,28.14406 226.93541,27.703125 227.0593,27.238466 227.36703,26.906978 227.67321,26.573962 228.1229,26.417008 228.5726,26.482594 228.5726,26.482594 240.34852,28.249362 240.34852,28.249362 240.34852,28.249362 225.69316,-6.6163052 225.69316,-6.6163052 225.62757,-6.769114 225.593,-6.9312419 225.58577,-7.0969857 225.58577,-7.0969857 222.99907,-79.962841 222.99907,-79.962841 222.99907,-79.962841 204.82714,-106.33836 204.82714,-106.33836 204.82714,-106.33836 164.85984,-62.240103 164.85984,-62.240103 164.52268,-61.863196 164.00537,-61.706742 163.51175,-61.834269 163.51175,-61.834269 150.85658,-65.041579 150.85658,-65.041579 150.85658,-65.041579 112.53936,-65.099904 112.53936,-65.099904 112.53936,-65.099904 102.34127,-61.855964 102.34127,-61.855964 101.83325,-61.695894 101.27408,-61.843059 100.91525,-62.240103 100.91525,-62.240103 60.950006,-106.33836 60.950006,-106.33836 60.950006,-106.33836 42.775485,-79.962841 42.775485,-79.962841 42.775485,-79.962841 40.191376,-7.0969857 40.191376,-7.0969857 40.183615,-6.9312419 40.147485,-6.769114 40.083457,-6.6163052 40.083457,-6.6163052 25.426538,28.249362 25.426538,28.249362 25.426538,28.249362 37.204019,26.482594 37.204019,26.482594 37.64857,26.419066 38.103939,26.573962 38.409615,26.906978 38.71782,27.238466 38.841231,27.703125 38.737457,28.14406 38.737457,28.14406 32.466386,55.01522 32.466386,55.01522 32.466386,55.01522 43.00317,56.255388 43.00317,56.255388 43.489554,56.312214 43.91238,56.629208 44.101877,57.08252 44.101877,57.08252 57.172177,88.126496 57.172177,88.126496 57.172177,88.126496 78.089319,101.60519 78.089319,101.60519 78.089319,101.60519 109.15187,127.86097 109.15187,127.86097 Z" />
  </g>
</svg>
