<?xml version="1.0" encoding="UTF-8" standalone="no"?>
<svg
   xmlns:dc="http://purl.org/dc/elements/1.1/"
   xmlns:cc="http://creativecommons.org/ns#"
   xmlns:rdf="http://www.w3.org/1999/02/22-rdf-syntax-ns#"
   xmlns:svg="http://www.w3.org/2000/svg"
   xmlns="http://www.w3.org/2000/svg"
   width="302.77502mm"
   height="323.50006mm"
   viewBox="0 0 302.77502 180.50006"
   version="1.1"
   id="svg2973">
  <defs
     id="defs2967" />
  <metadata
     id="metadata2970">
    <rdf:RDF>
      <cc:Work
         rdf:about="">
        <dc:format>image/svg+xml</dc:format>
        <dc:type
           rdf:resource="http://purl.org/dc/dcmitype/StillImage" />
        <dc:title></dc:title>
      </cc:Work>
    </rdf:RDF>
  </metadata>
  <g
     id="layer1"
     transform="translate(3.0592198,58.780586)">
    <path
       id="path12660"
       style="clip-rule:evenodd;fill:none;fill-rule:evenodd;stroke:#000000;stroke-width:1;stroke-linejoin:bevel;stroke-miterlimit:22.9256;stroke-dasharray:none;stroke-opacity:1;image-rendering:optimizeQuality;shape-rendering:geometricPrecision;text-rendering:geometricPrecision"
       d="M 154.14708,149.90645 C 150.48494,144.53694 156.69981,141.26386 161.93869,143.27888 167.07241,147.44977 151.96509,141.97556 154.81367,149.65721 L 154.14653,149.90645 Z M 143.48874,149.90645 C 144.55774,142.76091 133.27035,146.97056 134.68464,142.98233 139.92852,141.58422 146.89217,143.76433 143.67876,149.88892 Z M 161.54489,135.70008 C 159.50236,130.47753 174.07089,131.29036 163.20158,135.03672 162.63003,135.19761 162.15549,135.66074 161.54489,135.70008 Z M 134.94202,136.14364 C 127.9187,133.40084 129.85589,128.30553 135.55536,134.30637 136.3315,134.8188 135.91229,136.20056 134.94202,136.14364 Z M 170.34953,145.68922 C 164.74593,146.99535 157.84871,142.67719 167.25196,143.51057 168.53042,143.35132 173.64586,143.67909 170.34953,145.68922 Z M 127.72821,145.68922 C 124.19307,141.17232 142.58768,143.69475 132.135,145.27224 130.66593,145.40904 129.1979,145.56181 127.72821,145.68922 Z M 155.92028,132.37 C 153.10078,127.51036 163.5425,123.1675 157.24702,131.10873 L 156.79921,131.86782 Z M 141.52771,132.97676 C 136.02469,128.55029 138.77006,121.54076 141.98808,130.60583 142.56034,131.31758 142.94689,132.91952 141.52771,132.97676 Z M 154.14599,149.90645 C 148.37978,149.85644 142.27474,150.96341 137.56826,146.76924 131.92887,145.54135 133.02023,137.25624 135.13206,133.78512 140.0218,127.58414 144.04787,134.40191 149.97919,133.14214 154.23266,130.97237 160.13037,129.56281 162.67038,135.42989 164.4242,141.43986 164.07004,147.07046 156.98311,148.545 156.02014,148.93174 155.18043,149.71633 154.14599,149.90645 Z M 143.75379,147.86493 C 149.55059,148.08108 155.37913,148.42554 160.16619,144.55922 163.37835,141.79025 160.70539,131.85142 155.34808,133.16959 151.96706,136.38485 145.08986,136.21678 141.58765,133.30863 136.28992,131.7717 134.08027,140.3138 136.4992,143.84161 138.91696,145.18239 141.33806,146.52568 143.75379,147.86493 Z M 281.30845,-36.217798 C 272.24699,-37.222867 278.34053,-42.320944 282.27719,-36.916014 L 281.3079,-36.217798 Z M 272.59362,-31.071258 C 270.11107,-33.321075 282.95252,-40.622093 282.19779,-36.579227 278.98062,-34.792678 275.90149,-32.636831 272.59362,-31.071258 Z M 274.60504,-24.00695 C 273.13478,-27.993349 281.05018,-32.231251 283.34629,-36.243773 285.82769,-41.18697 294.48777,-45.350178 287.60813,-37.921286 283.20654,-33.388981 279.34366,-28.067918 274.60504,-24.00695 Z M 277.93346,-11.567196 C 267.93539,-13.657418 257.6357,-15.05583 247.83439,-17.648046 250.3253,-21.075639 258.20811,-16.410929 262.79884,-16.541366 267.80418,-16.573822 274.68292,-12.185456 278.42268,-15.204367 281.6924,-19.815095 284.34518,-25.029644 287.981,-29.282044 290.21066,-25.676799 282.9053,-20.150649 281.28637,-15.852832 280.10227,-14.546365 279.64083,-12.274506 277.93346,-11.567196 Z M 277.97892,-12.168485 C 272.38716,-16.100706 266.61985,-20.313844 261.5787,-24.895054 265.3448,-26.838113 270.29374,-19.132666 274.45486,-17.187859 275.27292,-15.947777 281.22529,-13.64438 277.97892,-12.168485 Z M 275.37115,21.022262 C 270.06726,13.124522 266.67739,3.5131881 262.1149,-5.0483188 265.17824,-8.1379573 267.34889,3.1226154 269.74518,6.0306249 271.92406,9.7943116 275.52402,21.105929 275.06576,10.862689 275.16302,2.0561335 277.67874,-6.9921085 276.21988,-15.643154 273.70346,-25.209571 270.36657,-34.709001 268.35743,-44.316835 272.54073,-43.637016 271.93158,-34.499624 274.11838,-30.460737 276.29824,-21.815061 280.47062,-13.356432 278.30394,-4.2717783 277.66587,3.8455995 277.02779,11.962977 276.38972,20.080355 L 275.55953,21.004736 275.3717,21.022262 Z M 253.71001,43.622026 C 251.85199,39.600266 256.46382,33.589852 257.17607,28.811691 260.20492,21.109538 261.61968,12.338283 265.64354,5.2924085 272.37719,1.5978058 263.34637,11.087771 263.92328,14.842616 260.84177,24.202282 257.76027,33.561947 254.67876,42.921613 L 253.70837,43.622026 Z M 211.53664,62.415826 C 210.16586,58.423899 219.25174,55.384801 222.09668,51.873796 232.28046,44.199362 242.0924,35.784343 252.50504,28.565743 253.44353,32.69924 244.74288,35.559009 241.81761,39.100098 231.68925,46.804474 221.83744,55.032372 211.53664,62.415826 Z M 229.29434,20.092398 C 225.71888,15.039453 223.37646,8.427946 221.08702,2.580038 225.32537,2.6469401 226.0405,11.778591 228.78733,15.459627 228.98083,16.727153 231.69161,19.552103 229.29434,20.092398 Z M 225.74138,36.814547 C 223.03928,32.861569 223.53425,26.611333 222.07451,21.775785 225.83812,19.598761 224.98152,31.03324 226.53172,34.468015 226.7511,35.241964 227.0632,36.80639 225.74138,36.814547 Z M 209.59971,50.473852 C 207.5994,46.553186 211.41479,40.465413 211.72393,35.712184 216.04587,35.227895 210.6778,45.358842 210.7214,49.127523 210.65579,49.721209 210.34789,50.511029 209.59971,50.473852 Z M 188.00702,70.850271 C 186.58367,66.865465 195.06234,63.147001 197.62099,59.353906 202.11747,55.399814 206.1618,50.725067 210.93029,47.20449 212.25323,51.229549 203.86361,54.899348 201.28615,58.700777 196.80739,62.657546 192.74,67.297408 188.00702,70.850271 Z M 205.61686,19.500424 C 200.50364,12.906868 196.09721,5.0469453 192.04525,-2.3281496 196.25828,-2.7956359 198.11839,6.1723272 201.30717,9.4774691 202.07666,12.494211 208.16626,17.023588 205.61686,19.500424 Z M 201.0267,36.519379 C 198.35157,32.02887 199.14569,25.218303 197.81899,19.835458 199.84308,13.629424 200.79952,26.913372 201.25891,29.753011 200.98524,31.713148 203.2874,35.503214 201.0267,36.519379 Z M 174.48901,72.075302 C 172.06687,67.811915 173.69633,61.206512 172.8608,56.038731 174.48097,48.207156 175.63425,61.57636 175.25022,64.583462 174.7663,66.743223 176.73442,70.904087 174.48901,72.075302 Z M 181.05113,75.29093 C 178.71378,71.04563 180.67795,64.470503 180.03037,59.32396 183.83163,50.194735 187.26062,40.699794 191.61003,31.890757 194.46589,35.022407 188.31824,41.80665 187.52515,46.331402 184.82173,53.21311 180.70833,59.814881 182.07082,67.503835 181.50984,69.846974 183.26702,73.893636 181.05113,75.29093 Z M 181.05113,75.29093 C 175.75613,72.716153 170.0521,70.435018 165.16028,67.253499 170.88121,53.372335 182.57269,43.219869 191.50862,31.472309 193.37608,25.427216 199.67457,19.75403 196.17563,13.258522 195.18893,6.3739665 189.78744,-0.76024105 193.99369,-7.4197626 196.10831,-16.752775 199.11576,-9.5200401 198.22409,-3.8040924 199.69889,4.0137155 204.43678,11.084161 206.60204,18.745261 203.93324,26.907002 203.7123,36.346579 196.76146,42.316432 195.32572,44.603378 185.60638,54.764085 190.34015,51.186766 197.89698,44.969024 206.95266,40.234244 213.54168,33.058966 216.56586,27.448462 223.73903,23.05251 221.74349,15.972566 221.64568,9.267811 219.52629,1.9483206 223.92361,-3.872646 227.05102,-1.2924073 224.41811,6.2941365 227.59531,10.42407 229.74398,15.582235 231.0419,20.837305 228.81873,26.220745 227.5614,31.31541 227.83504,37.423159 222.3213,39.992767 213.93982,46.114456 221.03492,42.551033 226.31062,40.126177 234.77523,35.942912 244.25229,32.879302 252.10057,28.014438 256.22451,20.832523 260.34846,13.650608 264.4724,6.4686926 263.02941,0.77067061 263.4912,-6.030591 257.45991,-9.0710718 252.1649,-13.67521 246.26932,-17.85633 244.35194,-24.998511 240.15873,-30.67213 240.37576,-37.27078 247.24178,-30.339589 251.25726,-26.000069 257.75368,-25.772064 263.04171,-26.568645 268.30267,-29.371464 260.81884,-36.021098 260.4404,-40.526081 258.75838,-46.880019 253.80914,-52.135497 252.17393,-58.2212 261.92107,-59.222805 264.95534,-47.458828 272.13239,-43.095729 277.31236,-36.638889 280.31175,-45.792741 280.44428,-50.627856 283.38951,-53.747877 285.43258,-42.969298 283.48534,-40.132174 287.27954,-39.732626 291.68008,-45.958109 293.54676,-50.3153 295.87375,-57.498833 300.75685,-58.352013 298.73341,-49.847384 299.18441,-44.145485 297.43786,-39.119596 293.69627,-34.815168 286.84882,-27.159228 287.73209,-16.399461 285.28374,-6.9773125 282.94219,2.7570938 279.31578,12.22273 276.18272,21.718832 268.4791,28.994972 261.39516,37.147234 253.31599,43.893008 231.89879,53.348071 210.79964,63.595331 188.45935,70.751158 185.96614,72.186054 183.65538,74.112384 181.05113,75.29093 Z M 167.57857,66.531187 C 172.51969,67.948521 177.6977,73.576846 182.47869,72.147697 193.95687,64.757434 208.07178,62.924825 220.09611,56.465634 231.40698,50.97155 243.67072,46.868434 254.38031,40.496616 261.07311,33.452557 268.74565,27.012762 274.84584,19.603206 279.62319,5.6815155 284.28057,-8.2707566 286.16306,-22.930423 286.1252,-32.892722 297.95817,-38.407587 296.60644,-48.570566 297.4682,-55.937862 292.54232,-43.005346 290.30586,-41.00017 285.79752,-37.659017 277.78875,-34.07458 282.12574,-42.85409 282.4779,-50.536034 279.93376,-37.489329 276.07211,-37.944994 268.54505,-41.795381 263.75159,-48.721842 258.31113,-54.913023 251.47766,-57.622378 260.89488,-48.196417 260.97262,-44.592231 262.78704,-38.740937 266.97283,-32.789762 267.30579,-26.99203 263.04207,-22.31483 256.63529,-24.636336 251.18492,-24.939547 245.01976,-30.248558 243.08749,-30.440915 247.65754,-22.773365 250.58579,-14.878935 260.15697,-11.759271 264.21361,-4.831456 264.96723,0.79877235 268.52304,6.9700495 263.78562,11.763293 259.67823,17.954176 256.96266,25.56968 251.98582,30.875117 238.25049,36.838699 224.67746,43.458407 210.84075,49.012119 210.43712,44.724586 218.4389,41.824448 221.35116,38.143609 227.45809,34.611648 225.70729,26.356204 227.94602,20.498966 228.00801,14.342465 223.67672,8.5599692 223.38879,2.3248468 222.40522,9.0008749 225.09447,16.452833 223.38599,22.905879 218.10596,30.131667 213.60763,38.1441 205.47822,42.554181 197.66108,48.107114 190.15269,54.291345 182.14481,59.454285 180.888,55.342845 188.26613,50.973441 190.43277,46.820236 195.11983,40.717629 201.53189,35.501872 202.17544,27.32043 204.08921,22.082012 205.33509,16.886159 201.83972,11.992477 199.72744,5.7239611 195.48509,-0.06237039 195.99461,-6.9354202 192.01381,-0.12866975 197.61425,7.1588638 198.55054,14.212352 201.49722,20.759268 194.98405,26.479928 193.24394,32.581403 184.63851,43.881263 173.78873,53.487368 167.57857,66.531187 Z M 15.337266,-35.372819 C 13.676011,-40.780568 26.91486,-37.712449 16.113859,-35.57547 L 15.659267,-35.424296 Z M 24.053198,-30.224635 C 21.28783,-31.232633 9.5660423,-38.292298 17.012201,-36.588975 18.382724,-34.881329 27.318003,-32.598352 24.053198,-30.224635 Z M 22.040691,-23.160328 C 16.318721,-28.64076 10.752935,-34.897007 5.8074325,-41.104012 9.8608874,-42.338552 13.340972,-33.865236 17.083038,-31.20272 18.006177,-29.00834 24.946828,-25.111528 22.040691,-23.160328 Z M 18.713348,-10.721671 C 14.432525,-15.714011 10.721846,-21.877869 7.4561817,-27.646164 11.653643,-28.235402 13.78245,-19.331396 17.069307,-16.122449 19.291505,-9.8095086 26.596548,-15.490257 31.379242,-15.219165 37.097813,-16.115176 42.820974,-17.829638 48.536707,-18.219488 47.502264,-14.111268 38.445008,-15.515899 34.231846,-13.690503 29.058335,-12.707523 23.890199,-11.674272 18.713348,-10.721671 Z M 18.667348,-11.321862 C 17.303383,-15.314364 26.422839,-18.306536 29.285698,-21.798379 36.752326,-28.429745 34.42066,-21.218237 28.35646,-18.508542 25.095306,-16.181418 22.0957,-13.331479 18.667348,-11.321862 Z M 21.276761,21.868337 C 18.696297,16.312628 19.884289,8.728786 18.799186,2.3704519 18.174174,-5.5685844 16.600319,-13.617 20.114104,-21.146093 22.466748,-28.672842 24.095901,-36.570413 26.900073,-43.865732 30.096661,-41.084084 24.761371,-33.639912 24.490362,-29.055442 22.129214,-20.311351 18.281679,-11.715769 20.461906,-2.5179412 20.97393,3.9926009 21.485953,10.503143 21.997977,17.013685 25.842489,9.5364888 29.02557,1.559197 33.27739,-5.610041 35.947342,-2.3181516 29.410063,4.0954436 28.353389,8.5653457 25.879476,12.837387 24.478248,18.279297 21.276761,21.868337 Z M 42.935162,44.468647 C 38.570662,36.393798 36.749078,26.461703 33.372848,17.66506 33.582408,13.09032 26.918534,6.3403091 29.360738,4.9041412 34.739505,8.7310896 34.230212,16.714471 37.055883,22.324013 39.213483,29.531689 42.195758,36.638626 43.846471,43.908221 L 43.254425,44.417162 42.93571,44.468647 Z M 85.109627,63.261901 C 71.029059,52.673846 56.776436,41.791462 43.25463,30.550386 47.033168,28.632377 51.93411,36.365944 56.083258,38.336172 66.016058,46.332467 76.577253,53.786291 86.123273,62.116478 L 85.915178,62.869793 85.109627,63.262995 Z M 67.351929,20.938473 C 65.613205,16.924348 71.098357,11.211325 72.236933,6.5631009 77.002928,-2.2460029 74.228854,9.8094848 71.536746,13.099917 70.038069,15.585998 69.624383,19.13564 67.351929,20.938473 Z M 70.905439,37.661168 C 68.867069,33.638389 72.361196,27.391735 72.513529,22.512479 76.775432,20.591626 72.191658,31.476686 72.284265,34.819785 71.926807,35.705662 72.305295,37.556116 70.905439,37.661168 Z M 87.046561,51.320473 C 84.460337,47.332444 83.984966,41.120544 83.060773,36.248173 87.173251,37.044065 86.091132,46.023387 88.041042,50.070262 88.23653,50.69813 87.642713,51.336471 87.046561,51.320473 Z M 108.64089,71.696892 C 100.45146,64.580638 92.246106,56.910431 84.725471,49.100831 88.669552,47.547243 92.816527,55.710222 96.761294,58.063503 100.96915,62.323395 105.86961,66.090528 109.66084,70.646839 L 109.38292,71.377091 108.64144,71.696892 Z M 91.029955,20.347046 C 89.414765,16.348091 95.927721,11.127102 97.559323,6.6947147 98.673226,3.4480469 106.42935,-6.8458175 103.09221,1.5581029 98.948687,7.6722742 95.758575,14.851592 91.029955,20.347046 Z M 95.61847,37.364908 C 93.512964,33.34445 96.609407,27.053381 96.560891,22.15634 98.772099,13.084959 99.182982,25.626796 97.652407,29.125732 96.745395,31.612655 97.869817,35.815969 95.61847,37.364908 Z M 122.15727,72.921377 C 119.8921,68.919862 122.17976,62.591115 121.70927,57.688883 123.0612,48.600452 124.63389,61.082422 123.4723,64.626534 122.78676,67.038088 124.41515,71.505358 122.15727,72.921377 Z M 115.59567,76.137552 C 113.25944,71.960033 115.22167,65.452279 114.57491,60.373197 111.05938,51.323802 106.7159,42.43888 103.70121,33.289993 107.93552,33.486006 108.37193,42.634971 111.00531,46.39774 113.7746,53.461646 118.02268,60.24956 116.61589,68.148389 116.05588,70.552908 117.80836,74.681368 115.59567,76.137552 Z M 148.42171,263.87016 C 146.08336,259.58484 148.0494,252.96733 147.40094,247.78021 147.60143,219.96344 147.0007,191.9872 147.70001,164.26972 151.53719,166.06881 148.4466,174.69048 149.44247,179.17398 149.24201,207.28644 149.84268,235.55825 149.1434,263.57151 Z M 181.981,119.17123 C 179.41969,117.67683 170.79463,106.55339 177.18581,110.75508 178.16882,113.24454 184.66268,116.93352 181.981,119.17123 Z M 176.39363,104.10618 C 174.52008,100.34668 179.10458,94.568912 177.76201,89.704509 176.39041,86.128121 181.68317,76.433948 183.65398,80.139568 178.41892,84.587439 180.32053,91.298584 179.24372,97.22121 178.16199,99.335303 178.48354,102.75427 176.39363,104.10618 Z M 166.13888,106.35143 C 164.77923,102.35837 173.93068,99.407081 176.80955,95.932321 181.21796,93.575068 185.31346,101.33338 188.82989,103.75476 184.94589,107.09786 180.68705,93.967707 176.46548,98.759855 172.9941,101.2158 169.77398,104.21514 166.13888,106.35143 Z M 168.31513,108.65965 C 172.72616,105.30986 176.84131,99.997955 182.42371,104.41625 180.15099,107.78099 175.06102,112.93329 169.8893,109.10175 L 169.03591,108.862 168.31568,108.65965 Z M 158.62004,127.79353 C 156.95956,123.7861 163.07605,118.35752 164.51878,113.8328 169.98453,108.7422 164.01264,104.58317 160.84299,100.1959 155.47892,95.903391 155.7303,89.006133 161.03513,97.120971 163.10349,101.62292 170.6644,105.41761 168.64437,110.53238 165.17945,116.11839 162.74139,122.86185 158.62004,127.79353 Z M 115.74189,118.18935 C 113.52673,116.44663 122.70882,106.49782 123.19556,110.74007 120.63594,113.08919 118.621,116.30762 115.74189,118.18935 Z M 181.97826,105.88212 C 180.64479,102.5875 190.98617,103.28429 191.62421,97.307274 197.19769,90.895509 201.0701,82.426416 209.69532,79.646582 220.9472,73.903004 231.95845,67.358342 243.35738,62.104295 243.56595,66.336083 234.50474,67.651305 231.01216,70.633857 221.83864,75.780782 212.0311,80.170481 203.25126,85.787608 198.10351,92.066018 193.43057,98.882269 187.99004,104.82904 185.98572,105.1734 183.98422,105.56242 181.97826,105.88212 Z M 116.47132,105.88212 C 110.72708,106.38515 107.32524,102.64021 104.60887,98.108812 99.438178,91.934005 95.804619,83.938199 87.586734,81.373328 76.474206,75.292405 64.836626,69.859642 54.045497,63.381961 57.425442,60.822887 63.614761,67.574545 68.046362,68.7813 77.477011,74.115092 87.740951,78.419235 96.669699,84.374061 101.80576,90.387527 106.00748,97.954221 111.70734,103.03043 112.96924,103.47659 120.06807,103.44831 116.47132,105.88212 Z M 121.32817,104.10618 C 116.8393,98.831888 118.85019,90.860126 117.23835,84.693523 111.20285,78.177118 116.77543,77.751518 119.58947,84.498626 119.86871,90.943096 120.23793,97.442261 122.229,103.56576 L 121.62498,104.06238 121.32653,104.10729 Z M 131.58401,106.35143 C 127.01458,104.22155 122.80838,98.304604 118.44579,97.70632 116.33104,100.40988 105.47986,107.87581 111.36224,100.95195 115.40687,96.819301 120.23683,92.523535 124.6537,98.77797 126.14564,101.02155 134.42731,103.75021 131.58401,106.35143 Z M 129.40776,108.65965 C 124.99673,105.30986 120.88158,99.997955 115.29918,104.41625 117.5719,107.78099 122.66187,112.93329 127.83359,109.10175 L 128.68698,108.862 129.40722,108.65965 Z M 138.68063,127.339 C 134.39583,121.97888 131.83777,114.97095 128.2249,108.96961 131.27493,103.12503 136.26827,97.611599 140.63591,92.539821 142.55597,96.319276 134.81954,101.21868 132.84906,105.36786 127.48201,109.53554 134.91317,114.79384 136.19968,119.52852 136.58133,121.83761 141.36217,125.64578 138.68063,127.339 Z M 186.84771,150.07129 C 182.4738,142.47483 180.51721,133.04133 177.08308,124.73069 180.45933,121.99136 181.40647,133.41756 183.47569,136.567 184.0125,140.67009 189.01683,146.81965 186.84771,150.07129 Z M 196.93542,177.06132 C 190.02536,166.33341 184.9536,153.90824 178.75329,142.52503 176.60626,139.85097 171.59191,127.3933 177.06363,134.69676 183.91131,148.61146 191.54751,162.30496 197.90486,176.35722 L 197.39708,176.9507 196.93542,177.06078 Z M 201.5234,199.25859 C 195.20693,189.21026 190.83241,177.42879 185.26638,166.71071 180.88715,157.11974 175.71922,147.7311 171.83222,138.01385 176.07067,137.97876 177.01216,147.08691 179.84941,150.69895 187.29612,166.68378 195.53053,182.46651 202.48529,198.57755 L 201.96314,199.15891 201.52395,199.25859 Z M 148.71961,263.87016 C 146.80161,259.84637 151.02125,253.73489 151.53889,248.9127 158.73337,223.80931 165.19987,198.33823 172.84805,173.464 176.06377,176.22649 170.77362,183.70349 170.53103,188.28999 163.58803,213.23476 156.64504,238.17954 149.70204,263.12431 Z M 192.40551,220.71709 C 186.96936,211.53123 183.69846,200.55297 179.10058,190.67319 174.194,178.47766 168.48381,166.44606 164.07619,154.14873 168.31069,154.32084 168.80157,163.46655 171.45683,167.21409 178.65373,184.85708 186.65165,202.33652 193.34968,220.08138 L 192.80035,220.63715 192.40551,220.71764 Z M 109.97161,150.42505 C 108.19179,146.40605 113.3615,140.57513 114.34715,135.87428 116.47755,133.05081 117.77734,121.782 120.98152,124.92509 117.62734,133.21242 114.27317,141.49974 110.91899,149.78707 L 109.97216,150.4256 Z M 99.907983,177.06132 C 98.22875,173.05329 104.17805,167.5437 105.54103,162.98462 111.27947,152.38568 116.3637,141.26232 122.50138,130.98341 125.07456,134.35065 118.35984,140.57486 117.17637,145.01299 111.72253,155.51231 106.26868,166.01164 100.81484,176.51096 L 99.908531,177.06078 Z M 95.320563,199.25859 C 93.613837,195.2488 99.355142,189.64286 100.61694,185.04232 108.69701,168.92501 116.12215,152.31002 124.60753,136.5007 127.26957,139.79883 120.71345,146.19551 119.64445,150.66218 111.84261,166.67004 104.04077,182.67791 96.238924,198.68577 Z M 148.42171,264.22392 C 144.59204,256.87572 143.54208,247.64341 140.79635,239.56051 134.99943,217.93094 128.38193,196.36204 123.09383,174.69485 127.27196,175.40251 126.60151,184.53548 128.76042,188.58903 135.50734,213.63569 143.07039,238.62145 149.31029,263.70595 L 148.69497,264.18723 Z M 104.43845,220.71709 C 102.69169,216.69963 108.10403,210.96079 109.20806,206.29957 117.11892,188.78625 124.36074,170.80635 132.68616,153.58215 135.4804,156.77361 129.18018,163.42477 128.28961,167.93113 120.65101,185.32274 113.0124,202.71434 105.37379,220.10595 Z M 165.02173,155.5557 C 154.14794,155.34813 143.10998,155.96556 132.33596,155.25663 134.13568,151.41944 142.75677,154.51006 147.24043,153.51418 153.38419,153.73352 159.70011,153.08799 165.74316,153.81325 166.39927,154.39415 165.89581,155.60811 165.02173,155.5557 Z M 170.34789,145.68922 C 166.45843,141.06734 168.64197,132.13226 161.49656,129.92771 154.9496,127.13534 157.11496,118.65906 155.05708,113.0067 154.41893,103.92753 158.66562,115.78808 158.31403,119.44623 157.78729,125.75709 162.51138,128.62025 167.36226,131.40016 168.32384,135.77483 172.23486,141.93521 170.34844,145.68922 Z M 127.73095,145.68922 C 125.90061,141.82123 129.0541,135.46508 129.94005,130.94727 134.96074,128.18226 139.53079,125.12246 139.01036,118.73245 138.58245,114.38003 143.12911,103.7877 142.01661,113.56365 140.26173,119.44128 141.92394,127.66928 134.83027,130.12779 128.31663,132.36055 131.55758,141.6871 127.73095,145.68922 Z M 149.03942,117.57218 C 145.32837,114.32492 139.15814,111.46441 140.38349,105.52138 139.92506,92.998353 138.60246,80.345832 138.67898,67.902973 145.30824,67.394361 152.40689,67.342437 159.03241,67.907363 158.68493,82.079097 157.58381,96.618279 156.27295,110.76252 153.801,112.91955 151.79503,115.85071 149.03942,117.57218 Z M 142.63664,109.41647 C 146.75303,114.90461 150.75266,115.95979 154.5567,109.58897 155.43709,96.267732 156.31749,82.946493 157.19788,69.625255 151.63095,69.625255 146.06402,69.625255 140.49709,69.625255 141.21026,82.888994 141.92351,96.15273 142.63664,109.41647 Z M 148.42171,264.22392 C 133.13593,249.99772 118.40903,234.81946 103.49928,220.09336 100.76364,212.41492 96.051116,205.00635 94.500609,197.16385 96.332803,187.92518 98.779775,178.61216 99.367516,169.32681 103.99417,159.03772 110.35444,149.30491 111.02125,137.74519 112.49885,130.64657 113.20644,123.24539 115.1595,116.3336 118.62011,118.77665 114.05789,126.72206 114.24811,131.30949 112.44942,140.95688 111.70954,150.95025 106.32555,159.44881 103.72055,165.17998 99.931158,170.57311 100.72961,177.11508 99.595174,184.37303 96.981445,191.77793 96.732367,198.94794 101.28637,208.02 102.98135,219.03262 111.6022,225.34432 123.87573,237.48568 136.14927,249.62704 148.4228,261.7684 162.81604,247.21178 177.97123,233.17232 191.89131,218.29456 194.50536,211.26632 198.54416,204.37962 200.27892,197.26403 198.61404,188.19896 195.8894,179.11692 195.53397,169.99493 191.3486,160.11674 184.6559,151.0014 184.40042,139.91618 183.42482,132.13691 181.62681,124.31994 181.15937,116.56395 185.22401,117.77436 183.46064,126.75472 185.11823,131.03912 186.61486,140.54947 187.05169,150.38441 192.42642,158.707 195.06704,164.57074 199.02748,170.09748 198.13508,176.80458 199.20254,184.33703 202.2405,191.99309 202.11642,199.45339 198.47167,206.70629 196.57273,215.12339 191.86305,221.66813 177.32943,235.76699 163.2311,250.54413 148.42171,264.22392 Z M 115.59567,76.137552 C 103.33769,67.846255 88.087887,65.79621 75.04991,58.873255 63.975164,53.644822 52.303194,49.317247 41.587199,43.547193 34.529092,36.034058 26.253702,29.312865 19.935749,21.317281 15.144212,7.3145606 10.409296,-6.7026171 8.5274686,-21.448283 8.4479546,-31.439058 -3.4502306,-37.020914 -1.9826095,-47.327496 -4.0428793,-55.283341 -0.15396097,-58.231266 2.9936173,-49.646739 5.4239291,-44.94035 7.8873269,-40.268009 13.332426,-38.66402 11.478189,-41.796106 12.538723,-51.631885 16.118721,-50.251674 16.348809,-45.929478 18.736638,-35.880154 23.92364,-41.846432 31.36158,-46.086969 33.933778,-56.926415 43.380926,-57.713007 45.769157,-53.959692 38.675004,-48.40485 37.78546,-43.561249 35.580332,-38.164494 33.375205,-32.76774 31.170078,-27.370985 35.033774,-23.874229 41.636461,-25.263858 45.92903,-26.961183 49.39669,-30.141094 59.1913,-36.886311 54.051028,-27.874186 51.252021,-21.621757 48.788149,-15.08945 42.673755,-11.316375 38.524959,-7.4778633 32.942405,-4.4696972 33.282882,1.9687265 30.104235,8.3959363 36.443373,13.303112 38.79461,18.847174 42.153628,23.941247 43.731611,31.004893 50.649195,32.163695 60.177714,36.427623 69.706233,40.691551 79.234752,44.955479 75.127436,40.936384 68.5053,38.357477 68.799905,31.652045 67.725415,25.639717 64.859591,19.499427 68.272022,13.699216 70.397232,8.3746967 71.57881,2.8908121 71.447242,-2.779321 75.687021,-1.9487364 75.947618,5.9567025 75.27607,10.042082 75.254884,16.043946 72.855848,22.741887 78.235004,27.162887 82.190049,34.084821 87.996057,39.175218 94.644588,43.431935 99.244855,46.825926 103.84512,50.219917 108.44539,53.613908 103.95014,47.237646 97.423584,41.930178 94.16804,34.899094 93.219773,27.946623 87.703809,20.671912 92.108949,14.021601 95.438127,5.9518497 99.678696,-1.9096048 98.887766,-10.921004 102.00331,-12.39501 104.7103,-2.6540146 104.1237,0.73606595 102.77634,7.1529144 99.769894,13.709032 99.438783,20.040573 102.75839,28.092488 106.58677,35.816595 113.02298,41.860467 120.26908,49.782642 127.21645,58.239961 131.48434,68.101761 126.6171,71.251534 120.861,73.593339 115.59567,76.137552 Z M 43.522759,42.591955 C 65.205016,52.181342 86.592357,62.509251 109.18961,69.816373 113.72772,74.737843 118.60776,73.581154 123.62157,70.046486 132.22684,68.675105 126.25214,62.941857 123.65637,58.219478 116.48876,46.625741 104.09793,38.534884 99.614698,25.263679 95.593424,20.419401 98.015766,14.939681 99.571357,9.6503741 100.61112,4.3684655 104.16486,-1.0393483 100.65056,-6.0931801 101.03933,3.3850045 93.786053,11.35788 92.336177,20.250612 94.736032,27.866512 95.097026,36.530551 101.60111,42.036545 106.12515,47.844669 111.28823,53.298622 115.43084,59.318138 111.38844,60.780554 106.65033,53.634844 102.39257,51.681414 93.738881,44.601615 82.933268,39.643347 77.39234,29.478322 73.138523,25.31344 71.670238,20.207966 72.991195,14.410989 73.04237,10.81097 74.393987,-1.6152029 72.397204,7.519247 70.531195,13.929978 66.894464,20.25138 69.880661,26.906892 70.630058,32.51312 71.779753,37.878701 77.264823,40.637976 79.065449,43.00859 89.992395,48.938591 84.281902,49.448061 70.684878,43.220713 56.799676,37.435222 43.382567,30.932011 39.038313,23.017849 34.030628,15.338286 30.097835,7.2786245 31.664214,1.1765452 31.180668,-6.1944163 37.578904,-9.5279938 42.788759,-14.089623 48.617941,-18.187064 50.538306,-25.214175 55.028088,-33.732497 46.571448,-22.30362 42.276552,-23.722707 37.63828,-23.150679 31.029798,-22.191836 28.968095,-27.379747 32.964496,-36.691166 36.066127,-46.435997 41.540919,-55.031309 33.902891,-52.790685 31.541481,-43.032294 24.306245,-39.639547 20.138405,-33.885581 15.849311,-40.396557 14.988706,-44.843657 13.522325,-42.936256 18.758191,-31.319122 10.586447,-37.838832 4.5144349,-39.675586 3.1369864,-46.364952 -0.1691636,-51.021082 -0.14175476,-45.392963 0.16648245,-39.858438 4.3177589,-35.604721 8.6377762,-30.566198 10.673664,-24.584346 11.233491,-18.036341 12.903014,-4.4308715 17.902071,8.3244902 22.075739,21.290593 29.224485,28.391155 36.375323,35.490847 43.522759,42.591955 Z M 155.25492,166.01252 C 149.74572,165.18867 142.37641,168.49505 139.05245,162.44911 135.48173,157.99304 130.94943,154.37643 126.80821,150.70269 127.20605,141.29616 121.57414,132.93349 118.64718,124.24693 114.62652,118.14602 110.54273,112.06388 109.44425,104.67298 100.72109,101.81866 91.394899,102.25777 82.469,100.74928 75.599057,94.272039 66.797239,89.353725 63.331039,80.101361 60.508446,74.175054 55.998696,68.629302 54.199174,62.472232 65.719884,63.512925 77.44245,67.227415 89.041204,69.301883 97.823677,70.811602 105.72432,75.251605 114.09136,78.140208 114.00716,71.862438 122.27327,71.836291 126.2879,68.737878 130.79616,66.887793 136.05813,61.667684 139.78956,67.584266 146.00862,67.207748 152.73305,68.326484 158.64676,67.046509 162.95067,61.463416 168.51485,68.036136 173.35004,69.503911 177.85955,71.433309 183.99355,74.166836 184.80993,77.816434 195.92408,73.117824 207.18276,68.893908 219.18127,67.13508 227.39627,65.804455 235.74059,62.760841 243.87693,62.472232 240.51077,71.281784 234.67417,79.598409 230.20832,88.120593 224.75165,92.21381 220.13363,98.08509 214.15345,101.07652 205.61086,102.06611 196.89596,102.04219 188.6324,104.67298 187.70403,113.20405 181.70771,119.43994 178.12225,126.81423 175.38885,134.97778 170.92442,142.88084 170.85225,151.50715 164.5662,155.13556 160.72883,161.58575 155.25492,166.01252 Z M 143.26805,163.971 C 148.25572,163.19399 154.92068,166.27887 157.83673,160.73206 161.37277,156.91348 164.73858,152.90037 169.23787,150.16383 168.71954,140.90375 174.48849,132.82804 176.96589,124.15076 181.22568,117.71667 185.66644,111.36315 186.82854,103.54981 195.43149,99.147716 206.18381,100.92644 215.19006,98.412741 221.70171,92.379796 229.83155,87.663417 233.05214,78.952866 235.7258,74.151512 238.39945,69.350159 241.07311,64.548806 223.67122,68.716566 205.5716,70.564375 189.23522,78.274934 181.88306,83.891978 183.23953,75.713244 177.57735,73.848531 172.60941,71.413618 167.64147,68.978705 162.67353,66.543792 157.43745,72.195651 149.10249,68.636991 142.33257,69.625802 136.88088,68.847543 133.51922,65.10777 128.21433,70.068095 124.23961,73.223012 115.88566,73.152342 115.97673,79.301973 112.26125,81.746773 106.01993,76.151759 101.32878,75.325655 87.18367,69.642214 71.73694,68.286591 57.006825,64.548259 61.991804,72.345655 65.183572,81.601921 71.352356,88.43623 77.144684,92.21894 81.147934,100.18972 88.853608,99.493459 96.332894,100.4071 104.49084,100.14325 111.2514,103.54926 112.25601,112.0659 118.02093,118.42958 121.62182,125.83406 123.95925,133.95492 129.49273,141.45931 128.84098,150.16437 134.60285,153.7156 138.57241,159.22442 143.26805,163.971 Z" />
  </g>
</svg>
