<?xml version="1.0" encoding="UTF-8" standalone="no"?>
<svg
   xmlns:dc="http://purl.org/dc/elements/1.1/"
   xmlns:cc="http://creativecommons.org/ns#"
   xmlns:rdf="http://www.w3.org/1999/02/22-rdf-syntax-ns#"
   xmlns:svg="http://www.w3.org/2000/svg"
   xmlns="http://www.w3.org/2000/svg"
   width="210mm"
   height="297mm"
   viewBox="0 0 210 297"
   version="1.1"
   id="svg2973">
  <defs
     id="defs2967" />
  <metadata
     id="metadata2970">
    <rdf:RDF>
      <cc:Work
         rdf:about="">
        <dc:format>image/svg+xml</dc:format>
        <dc:type
           rdf:resource="http://purl.org/dc/dcmitype/StillImage" />
        <dc:title></dc:title>
      </cc:Work>
    </rdf:RDF>
  </metadata>
  <g
     id="layer1">
    <path
       id="path267"
       style="clip-rule:evenodd;fill:none;fill-rule:evenodd;stroke:#333333;stroke-width:0.343938;stroke-linejoin:bevel;stroke-miterlimit:22.9256;image-rendering:optimizeQuality;shape-rendering:geometricPrecision;text-rendering:geometricPrecision"
       d="M 105.84489,284.92418 C 105.67537,284.92418 105.50261,284.89167 105.33958,284.82425 104.731,284.56823 104.46602,283.91308 104.74399,283.36084 104.74399,283.36084 139.68166,214.30019 139.68166,214.30019 139.96224,213.74734 140.68578,213.50964 141.28787,213.76093 141.89643,214.01696 142.16078,214.67092 141.8815,215.22317 141.8815,215.22317 106.94513,284.28441 106.94513,284.28441 106.73989,284.68708 106.30148,284.92478 105.84424,284.92478 Z M 194.64457,176.94234 C 194.50232,176.94234 194.3575,176.92046 194.21525,176.87138 194.21525,176.87138 173.16769,169.6264 173.16769,169.6264 172.54289,169.41176 172.22853,168.77554 172.4643,168.20554 172.70201,167.63673 173.39698,167.34996 174.02503,167.56459 174.02503,167.56459 195.07194,174.80898 195.07194,174.80898 195.69675,175.02539 196.01111,175.66102 195.77599,176.22985 195.59348,176.67213 195.13169,176.94234 194.64457,176.94234 Z M 182.34832,218.18904 C 182.15801,218.18904 181.96447,218.14765 181.7852,218.06311 181.7852,218.06311 134.81043,195.54291 134.81043,195.54291 134.22005,195.25909 133.99403,194.59391 134.30383,194.05406 134.61689,193.51777 135.34757,193.31082 135.94057,193.59286 135.94057,193.59286 182.91403,216.11128 182.91403,216.11128 183.50443,216.39509 183.7324,217.06146 183.42258,217.60131 183.20436,217.97441 182.78349,218.18904 182.34897,218.18904 Z M 186.03356,183.99693 C 185.99523,183.99693 185.95757,183.99516 185.91925,183.9922 185.91925,183.9922 153.95626,181.27408 153.95626,181.27408 153.28988,181.21849 152.80082,180.68161 152.86186,180.07495 152.92358,179.4683 153.525,179.0201 154.17905,179.08041 154.17905,179.08041 186.14331,181.79677 186.14331,181.79677 186.80971,181.85412 187.29878,182.391 187.23771,182.99765 187.17991,183.56707 186.65189,183.99693 186.03356,183.99693 Z M 167.35277,242.97799 C 167.01827,242.97799 166.68768,242.85441 166.44867,242.61021 166.44867,242.61021 126.27348,201.61302 126.27348,201.61302 125.82986,201.15892 125.87208,200.46238 126.37154,200.05677 126.86711,199.65292 127.63286,199.69135 128.07972,200.14486 128.07972,200.14486 168.25492,241.14205 168.25492,241.14205 168.69852,241.59616 168.6563,242.29269 168.15814,242.6983 167.92757,242.88516 167.63854,242.97799 167.35277,242.97799 Z M 105.50391,284.92418 C 105.04666,284.92418 104.60824,284.68649 104.4043,284.28381 104.4043,284.28381 69.468597,215.22258 69.468597,215.22258 69.18931,214.67033 69.454295,214.01637 70.062225,213.76034 70.664319,213.50608 71.385909,213.74734 71.66779,214.29958 71.66779,214.29958 106.60415,283.36025 106.60415,283.36025 106.88343,283.91308 106.61845,284.56823 106.01052,284.82366 105.84619,284.88988 105.67472,284.92359 105.50391,284.92359 Z M 15.920281,176.94234 C 15.426015,176.94234 14.960976,176.66444 14.781715,176.21742 14.554391,175.64625 14.877192,175.01298 15.505253,174.80544 15.505253,174.80544 37.338045,167.56044 37.338045,167.56044 37.969356,167.35173 38.661718,167.64678 38.89099,168.21856 39.118313,168.79032 38.795513,169.42241 38.166152,169.63053 38.166152,169.63053 16.334658,176.8761 16.334658,176.8761 16.197616,176.92046 16.056675,176.94234 15.920281,176.94234 Z M 28.213933,218.18904 C 27.776823,218.18904 27.353351,217.97146 27.137718,217.59362 26.830508,217.0532 27.063027,216.38741 27.657316,216.10833 27.657316,216.10833 75.418619,193.58991 75.418619,193.58991 76.012265,193.30964 76.740339,193.52131 77.048862,194.06175 77.357366,194.60217 77.124839,195.26678 76.530563,195.54704 76.530563,195.54704 28.769251,218.06547 28.769251,218.06547 28.591939,218.14943 28.402935,218.18904 28.214583,218.18904 Z M 22.4633,183.99693 C 21.841732,183.99693 21.312394,183.56353 21.259134,182.9888 21.202628,182.38214 21.694946,181.84881 22.360029,181.79737 22.360029,181.79737 57.180128,179.081 57.180128,179.081 57.877689,179.02484 58.433004,179.47776 58.488861,180.08442 58.545367,180.68989 58.053061,181.225 57.387977,181.27585 57.387977,181.27585 22.567867,183.99279 22.567867,183.99279 22.532794,183.99575 22.497073,183.99752 22.4633,183.99752 Z M 43.512151,243.47289 C 43.224424,243.47289 42.937346,243.38065 42.706776,243.19381 42.206015,242.78818 42.164447,242.09165 42.608053,241.63755 42.608053,241.63755 83.269074,200.14545 83.269074,200.14545 83.714619,199.69135 84.481674,199.65292 84.97724,200.05736 85.477364,200.46297 85.519568,201.15951 85.075319,201.61361 85.075319,201.61361 44.415599,243.1057 44.415599,243.1057 44.175286,243.34991 43.844693,243.47289 43.512151,243.47289 Z M 105.81695,284.92418 C 105.14927,284.92418 104.6063,284.43106 104.6063,283.82202 104.6063,283.82202 104.6063,207.87117 104.6063,207.87117 104.6063,207.26273 105.14927,206.76901 105.81695,206.76901 106.48659,206.76901 107.02762,207.26273 107.02762,207.87117 107.02762,207.87117 107.02762,283.82202 107.02762,283.82202 107.02762,284.43046 106.48659,284.92418 105.81695,284.92418 Z M 105.76695,286.72109 C 105.50845,286.72109 105.2506,286.64658 105.03302,286.49522 105.03302,286.49522 42.777571,243.24879 42.777571,243.24879 42.643775,243.15596 42.53336,243.0383 42.451525,242.90348 42.451525,242.90348 27.152008,217.61965 27.152008,217.61965 27.08446,217.50671 27.037695,217.38313 27.016262,217.25423 27.016262,217.25423 21.320836,183.36899 21.320836,183.36899 21.320836,183.36899 14.995399,176.55209 14.995399,176.55209 14.762879,176.30257 14.666104,175.97026 14.729106,175.64566 14.729106,175.64566 21.274073,142.51549 21.274073,142.51549 21.39228,141.91711 22.021642,141.5239 22.680231,141.62501 23.33687,141.73381 23.77463,142.30677 23.656422,142.90632 23.656422,142.90632 17.212777,175.5268 17.212777,175.5268 17.212777,175.5268 23.390129,182.18464 23.390129,182.18464 23.533667,182.34015 23.629143,182.52878 23.661618,182.72981 23.661618,182.72981 29.378478,216.72858 29.378478,216.72858 29.378478,216.72858 44.450672,241.63755 44.450672,241.63755 44.450672,241.63755 105.76176,284.22883 105.76176,284.22883 105.76176,284.22883 166.11353,241.64169 166.11353,241.64169 166.11353,241.64169 181.17014,216.75459 181.17014,216.75459 181.17014,216.75459 184.82874,182.78835 184.82874,182.78835 184.85602,182.5134 184.99826,182.26093 185.22299,182.07586 185.22299,182.07586 193.37676,175.39731 193.37676,175.39731 193.37676,175.39731 189.6454,143.35452 189.6454,143.35452 189.57591,142.74964 190.05653,142.20684 190.72161,142.14239 191.40424,142.07321 191.98229,142.51667 192.05308,143.12273 192.05308,143.12273 195.84939,175.72547 195.84939,175.72547 195.88965,176.0767 195.74286,176.42497 195.45579,176.66148 195.45579,176.66148 187.1916,183.42931 187.1916,183.42931 187.1916,183.42931 183.55508,217.19627 183.55508,217.19627 183.53885,217.3447 183.49013,217.48838 183.41154,217.62083 183.41154,217.62083 168.11332,242.90468 168.11332,242.90468 168.03279,243.03652 167.92498,243.15301 167.79507,243.24407 167.79507,243.24407 106.50997,286.49048 106.50997,286.49048 106.29044,286.6454 106.02869,286.72227 105.7676,286.72227 Z M 121.57957,132.51867 C 121.20545,132.51867 120.8346,132.3602 120.59884,132.0616 120.20589,131.56847 120.32735,130.88022 120.86967,130.52367 120.86967,130.52367 132.96393,122.56382 132.96393,122.56382 133.50496,122.20788 134.26292,122.31667 134.65326,122.81039 135.04556,123.30471 134.92476,123.99356 134.38242,124.35009 134.38242,124.35009 122.28816,132.30994 122.28816,132.30994 122.07383,132.45008 121.82507,132.51867 121.57957,132.51867 Z M 105.81695,180.23223 C 105.14927,180.23223 104.6063,179.73851 104.6063,179.13067 104.6063,179.13067 104.6063,167.06969 104.6063,167.06969 104.6063,166.46125 105.14927,165.96753 105.81695,165.96753 106.48659,165.96753 107.02762,166.46066 107.02762,167.06969 107.02762,167.06969 107.02762,179.13067 107.02762,179.13067 107.02762,179.73851 106.48659,180.23223 105.81695,180.23223 Z M 97.546926,183.99693 C 97.116314,183.99693 96.69804,183.78643 96.478519,183.41629 96.164161,182.88 96.384979,182.21126 96.974734,181.9233 96.974734,181.9233 105.4565,177.7784 105.4565,177.7784 105.82086,177.59925 106.26641,177.60339 106.62817,177.79142 106.62817,177.79142 114.59034,181.93808 114.59034,181.93808 115.17165,182.24082 115.37168,182.9137 115.04045,183.44113 114.70791,183.96737 113.96813,184.15362 113.38944,183.85089 113.38944,183.85089 106.00987,180.00872 106.00987,180.00872 106.00987,180.00872 98.119137,183.86567 98.119137,183.86567 97.938577,183.95377 97.74114,183.99634 97.547575,183.99634 Z M 109.27812,196.86561 C 109.22617,196.86561 109.17291,196.86265 109.11834,196.85674 108.4565,196.77692 107.98823,196.22288 108.07721,195.62097 108.07721,195.62097 109.33333,186.89894 109.33333,186.89894 109.36062,186.70797 109.44115,186.5288 109.5691,186.37566 109.5691,186.37566 113.02441,182.229 113.02441,182.229 113.37124,181.81273 113.99281,181.67497 114.50786,181.89846 114.50786,181.89846 122.67333,185.42665 122.67333,185.42665 123.2767,185.68799 123.5352,186.34491 123.24813,186.89599 122.96234,187.4453 122.2427,187.68062 121.63543,187.41928 121.63543,187.41928 114.35978,184.27484 114.35978,184.27484 114.35978,184.27484 111.69164,187.47544 111.69164,187.47544 111.69164,187.47544 110.47578,195.90833 110.47578,195.90833 110.3972,196.46235 109.8776,196.8662 109.27877,196.8662 Z M 102.25643,196.86561 C 101.6576,196.86561 101.138,196.46176 101.05876,195.90772 101.05876,195.90772 99.841605,187.47485 99.841605,187.47485 99.841605,187.47485 97.175432,184.27425 97.175432,184.27425 97.175432,184.27425 89.897816,187.41869 89.897816,187.41869 89.292497,187.67884 88.57415,187.44469 88.285117,186.89363 87.998048,186.34432 88.257846,185.6874 88.861237,185.42606 88.861237,185.42606 97.026682,181.89787 97.026682,181.89787 97.54109,181.67497 98.162656,181.81273 98.510139,182.22841 98.510139,182.22841 101.9661,186.37507 101.9661,186.37507 102.09404,186.52762 102.1746,186.70679 102.19992,186.89835 102.19992,186.89835 103.45928,195.62038 103.45928,195.62038 103.54697,196.22288 103.07999,196.77633 102.41685,196.85615 102.36359,196.86206 102.31034,196.86502 102.25708,196.86502 Z M 118.17556,111.24372 C 118.17556,111.24372 95.347085,111.24372 95.347085,111.24372 94.678756,111.24372 94.136429,110.74941 94.136429,110.14157 94.136429,109.53314 94.678756,109.03942 95.347085,109.03942 95.347085,109.03942 118.17556,109.03942 118.17556,109.03942 118.84389,109.03942 119.38622,109.53314 119.38622,110.14157 119.38622,110.74941 118.84389,111.24372 118.17556,111.24372 Z M 122.36936,133.66162 C 121.7913,133.66162 121.2795,133.28083 121.17818,132.74513 121.17818,132.74513 116.98179,110.32664 116.98179,110.32664 116.961,110.20779 116.95906,110.08718 116.98179,109.96832 116.98179,109.96832 122.42587,79.00107 122.42587,79.00107 122.53043,78.401515 123.1507,77.991164 123.81058,78.086946 124.47112,78.182729 124.91928,78.747995 124.8147,79.349337 124.8147,79.349337 119.40311,110.13565 119.40311,110.13565 119.40311,110.13565 123.56573,132.37499 123.56573,132.37499 123.6768,132.97455 123.23448,133.54276 122.5746,133.64565 122.50511,133.65629 122.43756,133.66162 122.36936,133.66162 Z M 89.902373,132.51867 C 89.812093,132.51867 89.718571,132.50862 89.626328,132.4897 88.975545,132.35133 88.570907,131.75946 88.722881,131.16581 88.722881,131.16581 94.114994,110.10254 94.114994,110.10254 94.114994,110.10254 88.706003,79.349927 88.706003,79.349927 88.601439,78.748585 89.050226,78.183319 89.710123,78.087537 90.376504,77.992345 90.989622,78.402105 91.094852,79.00166 91.094852,79.00166 96.540861,109.96891 96.540861,109.96891 96.566853,110.10964 96.561648,110.25392 96.526577,110.39345 96.526577,110.39345 91.081198,131.66722 91.081198,131.66722 90.950012,132.17572 90.453148,132.51926 89.902373,132.51926 Z M 190.84826,120.31696 C 190.4995,120.31696 190.15201,120.17859 189.91365,119.91607 189.91365,119.91607 168.3374,96.085588 168.3374,96.085588 167.91264,95.615531 167.98538,94.920768 168.50173,94.534063 169.01806,94.147375 169.77993,94.213591 170.206,94.683665 170.206,94.683665 191.78224,118.51295 191.78224,118.51295 192.20701,118.98302 192.13426,119.67777 191.61793,120.06448 191.3919,120.23359 191.1191,120.31755 190.84826,120.31755 Z M 195.63895,142.74254 C 195.42267,142.74254 195.20444,142.6911 195.01088,142.58408 195.01088,142.58408 167.91588,127.64059 167.91588,127.64059 167.34432,127.32484 167.16052,126.64723 167.50735,126.12749 167.85482,125.60717 168.60044,125.44102 169.17006,125.75557 169.17006,125.75557 192.56424,138.65677 192.56424,138.65677 192.56424,138.65677 151.84216,67.578667 151.84216,67.578667 151.55639,67.080216 151.72915,66.467648 152.2403,66.154859 152.75341,65.842069 153.43928,65.928396 153.83871,66.357668 153.83871,66.357668 203.91936,120.21939 203.91936,120.21939 204.34998,120.68354 204.28699,121.3789 203.77712,121.77269 203.26662,122.16649 202.50477,122.10795 202.0709,121.64321 202.0709,121.64321 159.01779,75.339838 159.01779,75.339838 159.01779,75.339838 196.71191,141.13306 196.71191,141.13306 196.96196,141.57062 196.8639,142.1075 196.46706,142.44571 196.23583,142.64202 195.93772,142.74372 195.63895,142.74372 Z M 133.67057,87.968463 C 133.41598,87.968463 133.15553,87.893375 132.93599,87.740822 132.40471,87.370679 132.30533,86.678278 132.71191,86.1952 132.71191,86.1952 150.72244,64.777761 150.72244,64.777761 151.12772,64.295865 151.88763,64.201851 152.42021,64.573177 152.9515,64.943319 153.05152,65.633939 152.64494,66.117608 152.64494,66.117608 134.63378,87.535056 134.63378,87.535056 134.39672,87.818861 134.03495,87.968463 133.67057,87.968463 Z M 189.17127,92.097391 C 188.91992,92.097391 188.66596,92.026435 188.44839,91.878031 188.44839,91.878031 150.95885,66.329878 150.95885,66.329878 150.55551,66.053158 150.38081,65.580131 150.52304,65.138443 150.52304,65.138443 168.53421,8.8932563 168.53421,8.8932563 168.71995,8.3084782 169.38958,7.9749942 170.03519,8.1441017 170.67558,8.3143915 171.04515,8.9257774 170.85679,9.5105555 170.85679,9.5105555 153.0814,65.022553 153.0814,65.022553 153.0814,65.022553 189.89805,90.113639 189.89805,90.113639 190.43389,90.478452 190.54365,91.168493 190.14292,91.656293 189.90391,91.945428 189.54084,92.097391 189.17127,92.097391 Z M 154.77464,181.27998 C 154.12384,181.27998 153.58801,180.81288 153.56528,180.21745 153.56528,180.21745 152.98788,165.77655 152.98788,165.77655 152.96189,165.16693 153.48474,164.65667 154.15307,164.63479 154.89999,164.59517 155.38257,165.08771 155.4053,165.69555 155.4053,165.69555 155.98335,180.13645 155.98335,180.13645 156.00737,180.74605 155.48648,181.25634 154.81816,181.27821 154.80191,181.27998 154.78762,181.27998 154.77464,181.27998 Z M 174.30432,169.69675 C 173.85746,169.69675 173.4262,169.47088 173.21512,169.08004 173.21512,169.08004 160.85457,146.09274 160.85457,146.09274 160.68181,145.77109 160.69285,145.3903 160.88184,145.07633 161.07214,144.76177 161.42092,144.55186 161.81192,144.51342 161.81192,144.51342 185.90171,142.1418 185.90171,142.1418 186.5551,142.07734 187.16433,142.51312 187.23642,143.11919 187.30787,143.72407 186.82659,144.26805 186.1628,144.33309 186.1628,144.33309 163.78898,146.53561 163.78898,146.53561 163.78898,146.53561 175.39092,168.11212 175.39092,168.11212 175.68449,168.65846 175.43638,169.31834 174.83625,169.5856 174.66544,169.66246 174.48293,169.69736 174.30496,169.69736 Z M 150.63734,142.43212 C 150.4925,142.43212 150.34572,142.40906 150.20479,142.35998 150.20479,142.35998 121.7218,132.44475 121.7218,132.44475 121.097,132.22716 120.78393,131.59094 121.02295,131.02213 121.26262,130.45332 121.95952,130.16714 122.58564,130.38591 122.58564,130.38591 150.38014,140.05989 150.38014,140.05989 150.38014,140.05989 167.73597,125.8762 167.73597,125.8762 168.23154,125.46939 168.99859,125.50428 169.44349,125.96016 169.89229,126.41249 169.85007,127.11079 169.35321,127.5176 169.35321,127.5176 151.44662,142.15126 151.44662,142.15126 151.22125,142.33514 150.93221,142.43212 150.63799,142.43212 Z M 149.85015,114.42895 C 149.27081,114.42895 148.75901,114.04994 148.65704,113.51188 148.54598,112.91233 148.98958,112.34173 149.64818,112.24062 149.64818,112.24062 157.17582,111.07226 157.17582,111.07226 157.83635,110.9741 158.46053,111.3738 158.57224,111.97336 158.68329,112.57293 158.24099,113.14292 157.58241,113.24462 157.58241,113.24462 150.05476,114.41241 150.05476,114.41241 149.98525,114.42423 149.9177,114.42836 149.8495,114.42836 Z M 139.80117,114.71573 C 139.78038,114.71573 139.76025,114.71573 139.74011,114.71396 139.07178,114.68498 138.55804,114.16584 138.59116,113.55919 138.59116,113.55919 139.79467,91.703602 139.79467,91.703602 139.83039,91.095159 140.39871,90.641648 141.06379,90.65762 141.73212,90.688367 142.24717,91.206914 142.21275,91.813569 142.21275,91.813569 141.00858,113.66916 141.00858,113.66916 140.97675,114.2569 140.44223,114.71514 139.80182,114.71514 Z M 132.33716,124.48077 C 132.33716,124.48077 139.79922,113.32681 139.79922,113.32681 139.79922,113.32681 150.63734,112.89753 150.63734,112.89753 150.63734,112.89753 144.58924,122.76428 144.58924,122.76428 144.58924,122.76428 132.33716,124.48018 132.33716,124.48018 Z M 141.00338,178.08528 C 140.68059,178.08528 140.35908,177.9694 140.11942,177.73702 139.66413,177.29356 139.68816,176.59525 140.17722,176.17959 140.17722,176.17959 153.14571,165.12082 153.14571,165.12082 153.14571,165.12082 167.19948,126.88197 167.19948,126.88197 167.19948,126.88197 140.02004,92.401317 140.02004,92.401317 139.631,91.905809 139.75571,91.218147 140.29803,90.862796 140.8436,90.507428 141.59702,90.622134 141.98802,91.115854 141.98802,91.115854 169.52664,126.05476 169.52664,126.05476 169.75396,126.34271 169.815,126.71167 169.69095,127.04635 169.69095,127.04635 155.34359,166.08461 155.34359,166.08461 155.2806,166.25786 155.17147,166.41514 155.02404,166.54049 155.02404,166.54049 141.83085,177.78846 141.83085,177.78846 141.59637,177.98832 141.29956,178.08528 141.00273,178.08528 Z M 21.209123,120.31696 C 20.937633,120.31696 20.664847,120.23299 20.438821,120.06389 19.922473,119.67718 19.849729,118.98243 20.272551,118.51236 20.272551,118.51236 41.85074,94.683074 41.85074,94.683074 42.275511,94.213001 43.038668,94.146784 43.553719,94.533473 44.072015,94.920177 44.144109,95.614941 43.719989,96.084998 43.719989,96.084998 22.143746,119.91548 22.143746,119.91548 21.902785,120.17859 21.556603,120.31637 21.209123,120.31637 Z M 15.343529,143.19487 C 15.040214,143.19487 14.741446,143.09198 14.508927,142.89214 14.115332,142.55155 14.018557,142.01348 14.275109,141.57593 14.275109,141.57593 52.882423,75.44154 52.882423,75.44154 52.882423,75.44154 9.5617195,121.64498 9.5617195,121.64498 9.1259085,122.10913 8.364049,122.16352 7.8535464,121.76855 7.3469399,121.37298 7.2852373,120.67882 7.7197496,120.21526 7.7197496,120.21526 58.219985,66.352347 58.219985,66.352347 58.621363,65.924849 59.310476,65.840887 59.820975,66.156633 60.33214,66.472969 60.499065,67.089676 60.210032,67.585172 60.210032,67.585172 18.456561,139.10556 18.456561,139.10556 18.456561,139.10556 42.888634,125.75203 42.888634,125.75203 43.460191,125.43923 44.205812,125.60953 44.549394,126.12986 44.893628,126.65254 44.707872,127.32838 44.135017,127.64177 44.135017,127.64177 15.966395,143.03818 15.966395,143.03818 15.772845,143.14402 15.557863,143.19546 15.342879,143.19546 Z M 78.383569,87.968463 C 78.020505,87.968463 77.658737,87.818861 77.421671,87.535056 77.421671,87.535056 59.410501,66.117608 59.410501,66.117608 59.003917,65.633939 59.103294,64.943319 59.634579,64.573177 60.165865,64.201851 60.927732,64.295865 61.332352,64.777761 61.332352,64.777761 79.343522,86.1952 79.343522,86.1952 79.750106,86.678278 79.650081,87.370679 79.118795,87.740822 78.899274,87.893375 78.639476,87.968463 78.382921,87.968463 Z M 22.466547,92.097391 C 22.093736,92.097391 21.729369,91.943066 21.491653,91.65216 21.093514,91.162573 21.207824,90.471958 21.744957,90.110688 21.744957,90.110688 58.968198,65.022553 58.968198,65.022553 58.968198,65.022553 40.78232,9.5164688 40.78232,9.5164688 40.590719,8.933465 40.955086,8.3203047 41.59419,8.145876 42.246284,7.9690826 42.911366,8.303157 43.101669,8.8879351 43.101669,8.8879351 61.530456,65.132531 61.530456,65.132531 61.675945,65.577766 61.499924,66.056705 61.091395,66.333426 61.091395,66.333426 23.18424,91.881573 23.18424,91.881573 22.967957,92.028797 22.714655,92.097981 22.465897,92.097981 Z M 57.282746,181.27998 C 57.268462,181.27998 57.255475,181.27998 57.239245,181.27821 56.570901,181.25634 56.04936,180.74664 56.074037,180.13645 56.074037,180.13645 56.650139,165.69555 56.650139,165.69555 56.672871,165.08889 57.176237,164.60108 57.903015,164.63479 58.570711,164.65667 59.0929,165.16634 59.068223,165.77655 59.068223,165.77655 58.492121,180.21745 58.492121,180.21745 58.469389,180.81288 57.934195,181.27998 57.283413,181.27998 Z M 37.751126,169.69675 C 37.572513,169.69675 37.391305,169.66187 37.220487,169.58501 36.618406,169.31775 36.371597,168.65787 36.665169,168.11153 36.665169,168.11153 48.457409,146.1779 48.457409,146.1779 48.457409,146.1779 25.917316,144.33545 25.917316,144.33545 25.250935,144.28106 24.759915,143.74477 24.819668,143.13929 24.879422,142.53264 25.439288,142.07734 26.132948,142.14001 26.132948,142.14001 50.427329,144.12496 50.427329,144.12496 50.824821,144.15748 51.178147,144.3662 51.373644,144.68195 51.569144,144.99829 51.582133,145.38202 51.407418,145.70782 51.407418,145.70782 38.83903,169.08004 38.83903,169.08004 38.630542,169.47088 38.197979,169.69675 37.751126,169.69675 Z M 61.420038,142.43212 C 61.126466,142.43212 60.835488,142.33514 60.610761,142.15126 60.610761,142.15126 42.703528,127.5176 42.703528,127.5176 42.204716,127.11079 42.164447,126.41249 42.610001,125.96016 43.060101,125.50606 43.823908,125.47057 44.320773,125.8762 44.320773,125.8762 61.678539,140.05989 61.678539,140.05989 61.678539,140.05989 89.471112,130.38591 89.471112,130.38591 90.09592,130.1695 90.794778,130.45332 91.031843,131.02213 91.2728,131.59094 90.957793,132.22716 90.334282,132.44475 90.334282,132.44475 61.851299,142.35998 61.851299,142.35998 61.711016,142.40906 61.565527,142.43212 61.420686,142.43212 Z M 62.205934,114.42895 C 62.137737,114.42895 62.07019,114.42423 62.001345,114.413 62.001345,114.413 54.474985,113.24521 54.474985,113.24521 53.816397,113.14233 53.372143,112.57352 53.485155,111.97395 53.598167,111.37439 54.225579,110.97351 54.881576,111.07285 54.881576,111.07285 62.407928,112.24121 62.407928,112.24121 63.06651,112.34409 63.51011,112.91233 63.397098,113.51247 63.297091,114.04994 62.78398,114.42955 62.205934,114.42955 Z M 72.25623,115.28691 C 71.613878,115.28691 71.079332,114.82807 71.048819,114.23916 71.048819,114.23916 69.843352,91.811798 69.843352,91.811798 69.811524,91.205143 70.325931,90.686596 70.992313,90.65703 71.668439,90.628644 72.230238,91.095766 72.261418,91.704783 72.261418,91.704783 73.466885,114.13154 73.466885,114.13154 73.499362,114.73819 72.984305,115.25558 72.317924,115.28514 72.297137,115.28632 72.275702,115.28632 72.256879,115.28632 Z M 89.89913,132.51867 C 89.65232,132.51867 89.402267,132.45008 89.18597,132.30581 89.18597,132.30581 77.248893,124.34596 77.248893,124.34596 76.709159,123.98646 76.593554,123.29702 76.98715,122.80448 77.381395,122.3149 78.138056,122.20491 78.680383,122.56797 78.680383,122.56797 90.61746,130.52782 90.61746,130.52782 91.156546,130.88673 91.2728,131.57675 90.879204,132.06752 90.640193,132.36138 90.273885,132.51867 89.89913,132.51867 Z M 79.718277,124.48077 C 79.718277,124.48077 72.256879,113.32681 72.256879,113.32681 72.256879,113.32681 61.418741,112.89753 61.418741,112.89753 61.418741,112.89753 67.466842,122.76428 67.466842,122.76428 67.466842,122.76428 79.718926,124.48018 79.718926,124.48018 Z M 71.052061,178.08528 C 70.757192,178.08528 70.458415,177.98832 70.225907,177.78846 70.225907,177.78846 57.031396,166.54049 57.031396,166.54049 56.884611,166.41573 56.774841,166.25786 56.71185,166.08461 56.71185,166.08461 42.364492,127.04635 42.364492,127.04635 42.239788,126.71167 42.301491,126.34212 42.529464,126.05476 42.529464,126.05476 70.069376,91.115854 70.069376,91.115854 70.458415,90.622134 71.213779,90.506247 71.759367,90.862796 72.301695,91.218737 72.425748,91.9064 72.036691,92.401317 72.036691,92.401317 44.856607,126.88197 44.856607,126.88197 44.856607,126.88197 58.909747,165.12082 58.909747,165.12082 58.909747,165.12082 71.880161,176.17959 71.880161,176.17959 72.369242,176.59525 72.393271,177.29356 71.936666,177.73702 71.697655,177.9694 71.376164,178.08528 71.051412,178.08528 Z M 127.28084,201.98198 C 127.28084,201.98198 84.171224,201.98198 84.171224,201.98198 83.503546,201.98198 82.96057,201.48826 82.96057,200.87984 82.96057,200.27141 83.503546,199.77769 84.171224,199.77769 84.171224,199.77769 127.28084,199.77769 127.28084,199.77769 127.94917,199.77769 128.49085,200.27082 128.49085,200.87984 128.49085,201.48826 127.94852,201.98198 127.28084,201.98198 Z M 105.50391,198.10552 C 105.34543,198.10552 105.18631,198.07774 105.03561,198.0192 105.03561,198.0192 93.308329,193.53906 93.308329,193.53906 93.085548,193.45392 92.89654,193.31141 92.764038,193.12752 92.764038,193.12752 86.37755,184.26183 86.37755,184.26183 86.225577,184.05133 86.158029,183.80181 86.183355,183.55051 86.183355,183.55051 87.021199,175.73316 87.021199,175.73316 87.085505,175.12768 87.674593,174.68836 88.342938,174.74454 89.008022,174.80308 89.495141,175.34232 89.429538,175.9478 89.429538,175.9478 88.635213,183.37846 88.635213,183.37846 88.635213,183.37846 94.585883,191.63808 94.585883,191.63808 94.585883,191.63808 105.50326,195.8084 105.50326,195.8084 105.50326,195.8084 116.42192,191.63808 116.42192,191.63808 116.42192,191.63808 122.37001,183.38141 122.37001,183.38141 122.37001,183.38141 121.57761,176.52844 121.57761,176.52844 121.50812,175.92297 121.9907,175.38076 122.65578,175.31572 123.31112,175.26723 123.91451,175.69236 123.9853,176.29724 123.9853,176.29724 124.82315,183.54105 124.82315,183.54105 124.85044,183.7953 124.78289,184.04956 124.63154,184.26124 124.63154,184.26124 118.24441,193.12693 118.24441,193.12693 118.11191,193.31082 117.9216,193.45333 117.70014,193.53847 117.70014,193.53847 105.97089,198.01861 105.97089,198.01861 105.82086,198.07715 105.66239,198.10493 105.50261,198.10493 Z M 141.00338,178.08528 C 140.99039,178.08528 140.9774,178.08528 140.96312,178.08528 140.96312,178.08528 122.74152,177.51352 122.74152,177.51352 122.07383,177.49283 121.55034,176.98314 121.57178,176.37471 121.5958,175.76627 122.08683,175.25659 122.824,175.31099 122.824,175.31099 141.04495,175.88276 141.04495,175.88276 141.71328,175.90346 142.23613,176.41313 142.21405,177.02157 142.19132,177.61818 141.65353,178.08528 141.00338,178.08528 Z M 71.050764,178.08528 C 70.423993,178.08528 69.893356,177.64477 69.845298,177.06414 69.796591,176.45749 70.298642,175.93005 70.965023,175.88453 70.965023,175.88453 88.137034,174.741 88.137034,174.741 88.803416,174.70138 89.384723,175.15253 89.433429,175.75918 89.482154,176.36761 88.981381,176.89503 88.315,176.93939 88.315,176.93939 71.141044,178.0841 71.141044,178.0841 71.112458,178.08528 71.081296,178.08528 71.050764,178.08528 Z M 122.78243,177.51411 C 122.46548,177.51411 122.15306,177.40059 121.91861,177.18477 121.91861,177.18477 112.8575,168.79742 112.8575,168.79742 112.8575,168.79742 105.7059,168.18484 105.7059,168.18484 105.7059,168.18484 99.753271,168.66261 99.753271,168.66261 99.753271,168.66261 88.994369,176.69282 88.994369,176.69282 88.596233,176.98965 88.034416,177.0263 87.595355,176.78091 87.156295,176.53671 86.933531,176.06547 87.043283,175.60663 87.043283,175.60663 93.081657,150.20689 93.081657,150.20689 93.081657,150.20689 91.833969,131.48215 91.833969,131.48215 91.795007,130.8755 92.302264,130.35221 92.971887,130.31555 93.581763,130.27298 94.211128,130.74187 94.251386,131.34852 94.251386,131.34852 95.508821,150.22582 95.508821,150.22582 95.515306,150.32573 95.505561,150.42685 95.483495,150.5256 95.483495,150.5256 90.145275,172.98369 90.145275,172.98369 90.145275,172.98369 98.506231,166.74153 98.506231,166.74153 98.695238,166.60198 98.925819,166.51684 99.168073,166.49615 99.168073,166.49615 105.29347,166.00538 105.29347,166.00538 105.39479,165.98055 105.5,165.96753 105.60977,165.96753 105.60977,165.96753 105.81762,165.96753 105.81762,165.96753 105.93258,165.96753 106.04233,165.98173 106.14821,166.00833 106.14821,166.00833 113.52453,166.64042 113.52453,166.64042 113.80836,166.66524 114.07464,166.78056 114.27534,166.96502 114.27534,166.96502 120.88461,173.08362 120.88461,173.08362 120.88461,173.08362 116.35568,150.4907 116.35568,150.4907 116.33814,150.40261 116.3336,150.31391 116.33814,150.22641 116.33814,150.22641 117.59426,131.34911 117.59426,131.34911 117.63648,130.74246 118.26064,130.28834 118.87572,130.31614 119.5434,130.3528 120.0526,130.87609 120.01169,131.48274 120.01169,131.48274 118.76465,150.22641 118.76465,150.22641 118.76465,150.22641 123.97621,176.21506 123.97621,176.21506 124.06973,176.69103 123.81254,177.16703 123.34165,177.39054 123.16563,177.47449 122.97403,177.51411 122.78373,177.51411 Z M 135.48982,195.80307 C 135.382,195.80307 135.27223,195.7883 135.16051,195.7605 134.51816,195.59435 134.14211,194.98593 134.32591,194.39997 134.32591,194.39997 139.6927,177.15697 139.6927,177.15697 139.6927,177.15697 125.94808,157.36319 125.94808,157.36319 125.86234,157.2408 125.80453,157.1042 125.77791,156.96231 125.77791,156.96231 120.95995,131.60514 120.95995,131.60514 120.84694,131.00439 121.2873,130.43381 121.94783,130.32975 122.59668,130.22981 123.23253,130.62952 123.34684,131.22908 123.34684,131.22908 128.12324,156.37161 128.12324,156.37161 128.12324,156.37161 142.02634,176.39599 142.02634,176.39599 142.21079,176.66029 142.26211,176.98373 142.16858,177.28527 142.16858,177.28527 136.65501,195.00129 136.65501,195.00129 136.50302,195.48614 136.0172,195.80366 135.48982,195.80366 Z M 75.971988,195.67121 C 75.432903,195.67121 74.940597,195.33892 74.801592,194.84106 74.801592,194.84106 69.880368,177.25691 69.880368,177.25691 69.797888,176.96244 69.8518,176.65143 70.030396,176.3954 70.030396,176.3954 83.932213,156.37102 83.932213,156.37102 83.932213,156.37102 88.708597,131.22849 88.708597,131.22849 88.822905,130.62893 89.462015,130.22804 90.10761,130.32914 90.766192,130.43322 91.208512,131.00321 91.094186,131.60455 91.094186,131.60455 86.277544,156.96171 86.277544,156.96171 86.250254,157.1042 86.191803,157.2408 86.108674,157.3626 86.108674,157.3626 72.35494,177.17116 72.35494,177.17116 72.35494,177.17116 77.146923,194.29649 77.146923,194.29649 77.311253,194.886 76.920899,195.48496 76.274008,195.63515 76.172686,195.65998 76.072013,195.67062 75.971988,195.67062 Z M 122.15438,132.51867 C 122.15438,132.51867 89.901076,132.51867 89.901076,132.51867 89.418497,132.51867 88.982678,132.25732 88.791077,131.85466 88.791077,131.85466 69.94208,92.196141 69.94208,92.196141 69.718002,91.724887 69.882314,91.174986 70.337622,90.871077 70.337622,90.871077 89.18597,78.287383 89.18597,78.287383 89.727001,77.925522 90.483662,78.033144 90.877258,78.523895 91.272151,79.014664 91.156546,79.704097 90.61746,80.065385 90.61746,80.065385 72.546542,92.127547 72.546542,92.127547 72.546542,92.127547 90.69605,130.31555 90.69605,130.31555 90.69605,130.31555 121.35809,130.31555 121.35809,130.31555 121.35809,130.31555 139.52383,92.0968 139.52383,92.0968 139.52383,92.0968 122.86558,80.03759 122.86558,80.03759 122.34272,79.659756 122.2557,78.96619 122.67201,78.490197 123.08834,78.01422 123.85215,77.936164 124.37304,78.313997 124.37304,78.313997 141.75615,90.897675 141.75615,90.897675 142.18546,91.207504 142.33225,91.739662 142.11467,92.196141 142.11467,92.196141 123.26436,131.85466 123.26436,131.85466 123.07276,132.25732 122.63564,132.51867 122.15438,132.51867 Z M 123.62159,80.277644 C 123.55208,80.277644 123.48323,80.271741 123.41179,80.260508 123.41179,80.260508 105.82931,77.47734 105.82931,77.47734 105.82931,77.47734 90.132936,80.25754 90.132936,80.25754 89.524357,80.360423 88.93073,80.039951 88.744964,79.506613 88.744964,79.506613 77.227458,46.139934 77.227458,46.139934 77.027426,45.559886 77.380746,44.941404 78.019856,44.758698 78.65376,44.576583 79.336371,44.898241 79.537069,45.478881 79.537069,45.478881 90.732418,77.905417 90.732418,77.905417 90.732418,77.905417 105.58639,75.275392 105.58639,75.275392 105.73447,75.250565 105.88126,75.250565 106.02545,75.272441 106.02545,75.272441 122.73243,77.91724 122.73243,77.91724 122.73243,77.91724 132.08257,45.530323 132.08257,45.530323 132.25338,44.941404 132.9269,44.593139 133.56082,44.744508 134.20641,44.900015 134.59545,45.502533 134.42464,46.090267 134.42464,46.090267 124.79002,79.455762 124.79002,79.455762 124.64779,79.948301 124.16197,80.278235 123.62159,80.278235 Z M 105.81695,208.97331 C 105.68121,208.97331 105.54417,208.95262 105.41363,208.91005 105.41363,208.91005 83.765937,201.91872 83.765937,201.91872 83.628897,201.87438 83.500934,201.80696 83.389886,201.72182 83.389886,201.72182 55.820094,180.49536 55.820094,180.49536 55.820094,180.49536 37.095785,169.52173 37.095785,169.52173 36.890544,169.40112 36.731418,169.22846 36.635941,169.0227 36.635941,169.0227 25.182088,144.258 25.182088,144.258 25.182088,144.258 15.20129,143.18836 15.20129,143.18836 14.859004,143.15112 14.550495,142.98379 14.352398,142.72717 14.153653,142.47174 14.086105,142.14948 14.163396,141.84439 14.163396,141.84439 19.623705,120.54578 19.623705,120.54578 19.623705,120.54578 8.8206448,122.02104 8.8206448,122.02104 8.3913293,122.07543 7.9542178,121.92288 7.6859757,121.60831 7.4164349,121.29376 7.3553825,120.87099 7.5249022,120.50498 7.5249022,120.50498 21.261733,90.755764 21.261733,90.755764 21.261733,90.755764 23.557049,31.854542 23.557049,31.854542 23.566792,31.644045 23.639535,31.440053 23.770084,31.266807 23.770084,31.266807 40.945344,8.578104 40.945344,8.578104 41.155132,8.3019747 41.492869,8.126954 41.860483,8.1038947 42.231346,8.0832001 42.591815,8.2156475 42.838624,8.4657592 42.838624,8.4657592 78.757676,44.54761 78.757676,44.54761 78.757676,44.54761 87.231642,42.092013 87.231642,42.092013 87.349211,42.056535 87.473914,42.040571 87.597967,42.040571 87.597967,42.040571 87.599264,42.040571 87.599264,42.040571 87.599264,42.040571 121.89262,42.087874 121.89262,42.087874 121.99264,42.087874 122.09267,42.099699 122.18945,42.121577 122.18945,42.121577 132.84507,44.581904 132.84507,44.581904 132.84507,44.581904 168.79854,8.4663512 168.79854,8.4663512 169.04665,8.2162378 169.41166,8.0855647 169.77474,8.104485 170.14429,8.127546 170.48138,8.302565 170.69183,8.5786943 170.69183,8.5786943 187.86513,31.267399 187.86513,31.267399 187.99569,31.442418 188.06843,31.644637 188.07817,31.855134 188.07817,31.855134 190.37479,90.756354 190.37479,90.756354 190.37479,90.756354 204.01029,120.29094 204.01029,120.29094 204.15189,120.47306 204.23632,120.69301 204.23632,120.93249 204.23632,121.54091 203.69529,122.03463 203.02566,122.03463 203.01397,122.03345 203.00293,122.03463 202.99513,122.03463 202.93344,122.03463 202.87367,122.03048 202.81457,122.02163 202.81457,122.02163 192.01347,120.54637 192.01347,120.54637 192.01347,120.54637 197.47248,141.84498 197.47248,141.84498 197.54975,142.15007 197.48222,142.47233 197.28153,142.72776 197.08472,142.98497 196.77622,143.1523 196.43394,143.18896 196.43394,143.18896 186.45248,144.25859 186.45248,144.25859 186.45248,144.25859 174.99928,169.02329 174.99928,169.02329 174.90445,169.22905 174.74467,169.4023 174.53944,169.52232 174.53944,169.52232 155.69107,180.58109 155.69107,180.58109 155.69107,180.58109 128.06023,201.72418 128.06023,201.72418 127.94852,201.80755 127.82446,201.87379 127.68872,201.91813 127.68872,201.91813 106.2255,208.90946 106.2255,208.90946 106.093,208.95203 105.95596,208.9745 105.81695,208.9745 Z M 84.784342,199.90894 C 84.784342,199.90894 105.81695,206.7022 105.81695,206.7022 105.81695,206.7022 126.66902,199.90894 126.66902,199.90894 126.66902,199.90894 154.25569,178.80961 154.25569,178.80961 154.25569,178.80961 172.91245,167.85373 172.91245,167.85373 172.91245,167.85373 184.49686,142.80995 184.49686,142.80995 184.66571,142.44453 185.03854,142.1885 185.4698,142.14298 185.4698,142.14298 194.80564,141.14252 194.80564,141.14252 194.80564,141.14252 189.24986,119.46492 189.24986,119.46492 189.15764,119.10896 189.26739,118.7341 189.54019,118.46682 189.81168,118.19838 190.20982,118.07185 190.6086,118.12448 190.6086,118.12448 201.04405,119.55006 201.04405,119.55006 201.04405,119.55006 188.05738,91.423322 188.05738,91.423322 187.99893,91.299745 187.9684,91.169083 187.96192,91.035453 187.96192,91.035453 185.66983,32.252476 185.66983,32.252476 185.66983,32.252476 169.56689,10.974573 169.56689,10.974573 169.56689,10.974573 134.14991,46.549694 134.14991,46.549694 133.85113,46.853613 133.3926,46.980147 132.95548,46.877264 132.95548,46.877264 121.74129,44.289811 121.74129,44.289811 121.74129,44.289811 87.786308,44.242509 87.786308,44.242509 87.786308,44.242509 78.749228,46.859526 78.749228,46.859526 78.299126,46.988425 77.803559,46.870169 77.48531,46.549694 77.48531,46.549694 42.070271,10.974573 42.070271,10.974573 42.070271,10.974573 25.964729,32.252476 25.964729,32.252476 25.964729,32.252476 23.674607,91.035453 23.674607,91.035453 23.667464,91.169083 23.635639,91.299745 23.579133,91.423322 23.579133,91.423322 10.591169,119.55006 10.591169,119.55006 10.591169,119.55006 21.027913,118.12448 21.027913,118.12448 21.422158,118.07303 21.825494,118.19838 22.096333,118.46682 22.369122,118.7341 22.478888,119.10896 22.386659,119.46492 22.386659,119.46492 16.829574,141.14252 16.829574,141.14252 16.829574,141.14252 26.166722,142.14298 26.166722,142.14298 26.597988,142.1885 26.972747,142.44453 27.140316,142.80995 27.140316,142.80995 38.722771,167.85373 38.722771,167.85373 38.722771,167.85373 57.258717,178.72742 57.258717,178.72742 57.258717,178.72742 84.78499,199.90835 84.78499,199.90835 Z" />
  </g>
</svg>
