<?xml version="1.0" encoding="UTF-8" standalone="no"?>
<svg
   xmlns:dc="http://purl.org/dc/elements/1.1/"
   xmlns:cc="http://creativecommons.org/ns#"
   xmlns:rdf="http://www.w3.org/1999/02/22-rdf-syntax-ns#"
   xmlns:svg="http://www.w3.org/2000/svg"
   xmlns="http://www.w3.org/2000/svg"
   version="1.1"
   width="880.09436"
   height="930.05505"
   id="svg76"
   viewBox="0 0 880.09435 930.05505">
  <metadata
     id="metadata82">
    <rdf:RDF>
      <cc:Work
         rdf:about="">
        <dc:format>image/svg+xml</dc:format>
        <dc:type
           rdf:resource="http://purl.org/dc/dcmitype/StillImage" />
        <dc:title></dc:title>
      </cc:Work>
    </rdf:RDF>
  </metadata>
  <defs
     id="defs80" />
  <path
     id="path72"
     style="fill:none;fill-opacity:1;stroke:#000000;stroke-width:1;stroke-linecap:round;stroke-linejoin:round;stroke-miterlimit:4;stroke-dasharray:none;stroke-opacity:1"
     d="M 795.5872,578.1727 836.0118,739.2795 M 806.248,558.5709 740.3425,679.752 M 574.5157,784.9882 604.2795,665.9331 635.1063,881.7205 M 301.3267,806.248 297.248,569.2938 M 240.311,521.1536 200.3425,594.7126 M 274.433,509.7795 388.4921,807.311 508.6102,668.0591 297.248,569.2938 218.4133,638.2953 M 444.8307,597.9016 508.6102,668.0591 474.5944,841.3268 M 303.4527,500.1063 416.8025,443.5055 444.8307,597.9016 Z M 808.374,439.5158 665.7119,328.0547 M 522.4291,354.4764 665.7119,328.0547 806.248,558.5709 827.5078,589.3977 M 665.7119,328.0547 543.6889,492.6654 604.2795,665.9331 Z M 231.1693,441.6417 416.8025,443.5055 543.6889,492.6654 416.8025,443.5055 M 231.1693,441.6417 372.9653,391.496 522.4291,354.4764 352.087,366.7255 M 311.5315,318.6093 604.2795,665.9331 806.248,558.5709 M 661.4089,327.2723 798.807,321.5236 M 415.0669,269.437 524.5551,302.3898 840.2637,359.7914 M 616.0288,223.2592 524.5551,302.3898 M 469.2795,145.0669 824.3189,320.4606 M 226.4836,299.3542 448.0196,244.9882 620.2201,219.6337 M 303.5162,250.4032 231.5647,137.4369 M 226.4836,299.3542 469.2795,145.0669 M 240.2098,325.5967 231.1693,441.6417 296.4503,326.7439 M 225.8543,319.3977 272.6259,339.5945 M 231.5647,137.4369 225.8543,319.3977 198.2165,306.6417 M 469.2795,145.0669 705.2637,99.3583 M 449.0826,46.2087 377.8622,131.248 M 231.5647,137.4369 377.8622,131.248 727.5866,183.3347 M 182.2716,116.3662 167.3937,171.6491 M 298.1378,67.4685 231.5647,137.4369 M 119.5551,197.1536 488.4133,0.5 M 355.8217,294.7195 370.4212,323.6496 403.374,291.7599 388.0045,277.8074 M 415.0669,269.437 428.8858,298.1378 400.185,343.8465 341.7204,334.2795 M 341.7204,334.2795 338.7792,303.912 M 272.6259,339.5945 345.1739,300.2278 451.7492,244.4391 M 469.2795,145.0669 607.4685,66.4055 M 119.5551,197.1536 198.2165,306.6417 147.1929,292.8228 117.4291,301.3268 88.728298,268.374 113.1771,182.2717 119.5551,197.1536 189.7126,73.8465 182.2716,116.3662 327.9015,35.5788 298.1378,67.4685 488.4133,0.5 449.0826,46.2087 507.5472,27.0748 641.4842,51.5236 607.4685,66.4055 720.1456,94.0433 705.2637,99.3583 788.1771,191.8386 727.5866,183.3347 824.3189,320.4606 798.807,321.5236 840.2637,359.7914 879.5944,496.9173 808.374,439.5158 877.4685,642.5473 827.5078,589.3977 836.0118,739.2795 740.3425,679.752 635.1063,881.7205 574.5157,784.9882 547.9409,929.5551 474.5944,841.3268 462.9015,913.6102 388.4921,807.311 327.9015,928.4921 301.3267,806.248 236.4842,927.4291 230.1063,739.2795 223.7283,698.8858 181.2086,744.5945 218.4133,638.2953 200.3425,594.7126 190.7756,613.8465 170.5787,581.9567 173.6529,547.698 M 117.4291,301.3268 19.633798,442.7047 0.49999816,555.3819 48.334598,661.6811 70.657398,566.0118 105.7362,579.8307 173.6529,547.698 204.5944,533.0591 303.4527,500.1063" />
</svg>
