<?xml version="1.0" encoding="utf-8"?>
<svg version="1.1" id="Layer_1" xmlns="http://www.w3.org/2000/svg" xmlns:xlink="http://www.w3.org/1999/xlink" x="0px" y="0px"
	 viewBox="684.3449 -1.2959 1191.3276 1602.9106" enable-background="new 684.3449 -1.2959 1191.3276 1602.9106"
	 xml:space="preserve">
<g>
	<polygon fill="none" stroke="#000000" stroke-miterlimit="10" points="1154.6663,1599.5601 1190.8628,1501.076 
		1183.3296,1384.7692 1272.8104,1268.2786 1364.6801,1385.5042 1359.3516,1508.4255 1395.7319,1598.0902 1408.4099,1499.0549 
		1434.1334,1402.0406 1380.2979,1152.3392 1311.2119,1100.3411 1232.5717,1100.3411 1162.9344,1150.6855 1113.8761,1400.5708 
		1140.8859,1499.2386 	"/>
	<polygon fill="none" stroke="#000000" stroke-miterlimit="10" points="1272.8716,1268.0948 1336.2003,1349.5525 
		1274.0046,1425.9879 1210.9974,1348.8175 	"/>
	<polygon fill="none" stroke="#000000" stroke-miterlimit="10" points="1306.6797,1100.3411 1272.3817,1203.8474 
		1235.6339,1100.3411 	"/>
	<polygon fill="none" stroke="#000000" stroke-miterlimit="10" points="1113.8761,1400.5708 1089.6226,1474.8625 
		985.2588,1319.4193 1111.4263,989.9139 1119.7559,1032.7863 1212.7278,1097.4624 1333.3832,1098.075 1425.8651,1033.7662 
		1434.1334,990.7713 1564.037,1323.2166 1459.4281,1476.9449 1434.1334,1402.0406 1380.2979,1152.3392 1311.2119,1100.3411 
		1232.5717,1100.3411 1162.9344,1150.6855 	"/>
	<polygon fill="none" stroke="#000000" stroke-miterlimit="10" points="1111.7637,988.9467 1208.9304,998.2433 1272.7493,981.7068 
		1335.9554,998.2433 1434.1334,990.7713 1425.8651,1033.7662 1333.3832,1098.075 1212.7278,1097.4624 1119.7559,1032.7863 
		1111.4263,989.9139 	"/>
	<polygon fill="none" stroke="#000000" stroke-miterlimit="10" points="1231.9124,992.2884 1247.1482,1016.1273 
		1297.9828,1016.1273 1314.2289,992.5591 1272.7493,981.7068 	"/>
	<polygon fill="none" stroke="#000000" stroke-miterlimit="10" points="985.2588,1319.4193 980.2059,1336.5377 979.0117,994.6911 
		1044.6064,911.7329 1058.8463,929.9231 1060.2986,946.0178 1106.6929,988.4615 1111.7637,988.9467 	"/>
	<polygon fill="none" stroke="#000000" stroke-miterlimit="10" points="1564.037,1323.2166 1570.9731,1330.1527 1568.0792,994.3236 
		1499.292,910.3778 1486.5909,928.1086 1486.5909,948.0214 1440.4724,989.9139 1434.1334,990.7713 	"/>
	<polygon fill="none" stroke="#000000" stroke-miterlimit="10" points="1570.9731,1330.1527 1572.6727,1405.1642 
		1701.4738,1195.1505 1656.4578,988.444 1521.443,879.6261 1499.292,910.3778 1501.4227,912.9782 1568.0792,994.3236 	"/>
	<polygon fill="none" stroke="#000000" stroke-miterlimit="10" points="1701.4738,1195.1505 1718.8677,1253.5182 
		1757.698,1134.3328 1592.3431,780.9972 1521.443,879.6261 1656.4578,988.444 	"/>
	<polygon fill="none" stroke="#000000" stroke-miterlimit="10" points="1757.698,1134.3328 1788.9336,1178.5526 1749.1234,900.7391 
		1611.9315,753.7479 1592.3431,780.9972 	"/>
	<polygon fill="none" stroke="#000000" stroke-miterlimit="10" points="1611.9315,753.7479 1749.1234,900.7391 1823.9911,974.1369 
		1813.9221,826.7536 1676.8528,725.3295 1598.9675,572.8431 1587.923,649.629 	"/>
	<polygon fill="none" stroke="#000000" stroke-miterlimit="10" points="1793.0637,811.3195 1794.5682,741.6211 1710.1707,604.9192 
		1604.9495,531.0561 1598.9675,572.8431 1676.8528,725.3295 	"/>
	<polygon fill="none" stroke="#000000" stroke-miterlimit="10" points="1794.5682,741.6211 1874.9235,871.0347 1834.5009,516.7857 
		1639.5537,442.1876 1568.7815,496.3452 1604.9495,531.0561 1710.1707,604.9192 	"/>
	<polygon fill="none" stroke="#000000" stroke-miterlimit="10" points="1834.5009,516.7857 1782.1353,437.7779 1680.7113,429.5096 
		1601.8872,398.4577 1486.1316,418.3015 1568.7815,496.3452 1639.5537,442.1876 	"/>
	<polygon fill="none" stroke="#000000" stroke-miterlimit="10" points="1486.1316,418.3015 1470.1462,401.765 1443.1366,401.765 
		1582.4109,301.6272 1666.7471,193.4048 1758.0654,235.2974 1847.9138,440.534 1782.1353,437.7779 1680.7113,429.5096 
		1601.8872,398.4577 	"/>
	<polygon fill="none" stroke="#000000" stroke-miterlimit="10" points="980.2059,1336.5377 980.2059,1402.9594 850.2105,1194.2318 
		892.2868,989.9139 1023.4765,881.3241 1044.6064,911.7329 979.0117,994.6911 	"/>
	<polygon fill="none" stroke="#000000" stroke-miterlimit="10" points="850.2105,1194.2318 836.4301,1257.928 796.7424,1136.6602 
		952.1857,783.7586 1023.4765,881.3241 892.2868,989.9139 	"/>
	<polygon fill="none" stroke="#000000" stroke-miterlimit="10" points="796.7424,1136.6602 769.3654,1181.9213 803.1733,907.7825 
		935.4655,758.9539 952.1857,783.7586 	"/>
	<polygon fill="none" stroke="#000000" stroke-miterlimit="10" points="803.1733,907.7825 734.8224,983.1155 739.0484,837.9617 
		871.1568,733.4141 943.1825,579.4407 957.1467,656.7949 935.4655,758.9539 	"/>
	<polygon fill="none" stroke="#000000" stroke-miterlimit="10" points="761.665,820.0632 758.1572,753.9929 837.9,613.6161 
		936.5679,539.5693 943.1825,579.4407 871.1568,733.4141 	"/>
	<polygon fill="none" stroke="#000000" stroke-miterlimit="10" points="758.1572,753.9929 685.0291,881.3241 714.1824,530.5661 
		903.0662,451.1908 973.622,503.1277 936.5679,539.5693 837.9,613.6161 	"/>
	<polygon fill="none" stroke="#000000" stroke-miterlimit="10" points="714.1824,530.5661 764.0369,449.1697 860.4999,440.7177 
		939.6915,406.5422 1050.4122,423.6856 1002.2078,473.5672 973.622,503.1277 903.0662,451.1908 	"/>
	<polygon fill="none" stroke="#000000" stroke-miterlimit="10" points="764.0369,449.1697 697.8908,455.7843 782.7783,248.3428 
		871.1568,205.5316 955.8605,310.0792 1095.1348,406.5422 1067.0227,406.5422 1050.4122,423.6856 939.6915,406.5422 
		860.4999,440.7177 	"/>
	<polygon fill="none" stroke="#000000" stroke-miterlimit="10" points="871.1568,205.5316 840.2886,167.6814 920.0927,183.2992 
		959.7191,216.0048 1054.8959,246.3217 1147.1329,406.5422 1213.8302,451.1908 1250.3943,555.1871 1191.5978,613.9836 
		1107.2616,565.6603 1016.127,574.8472 936.5679,539.5693 973.622,503.1277 1067.0227,406.5422 1095.1348,406.5422 
		955.8605,310.0792 	"/>
	<polygon fill="none" stroke="#000000" stroke-miterlimit="10" points="1058.744,415.1031 1093.6649,549.3075 1002.2078,473.5672 	
		"/>
	<polygon fill="none" stroke="#000000" stroke-miterlimit="10" points="957.1467,656.7949 1045.3414,805.6236 1125.2679,705.8532 
		1112.0388,679.8163 1131.3584,660.4967 1051.4048,609.0227 1016.127,574.8472 936.5679,539.5693 	"/>
	<polygon fill="none" stroke="#000000" stroke-miterlimit="10" points="1131.3584,660.4967 1168.7529,654.5287 1150.0557,620.8432 
		1052.7755,609.9052 	"/>
	<polygon fill="none" stroke="#000000" stroke-miterlimit="10" points="1125.2679,705.8532 1176.9598,729.1268 1207.3381,674.1275 
		1191.5978,613.9836 1107.2616,565.6603 1016.127,574.8472 1052.7755,609.9052 1150.0557,620.8432 1168.7529,654.5287 
		1131.3584,660.4967 1112.0388,679.8163 	"/>
	<polygon fill="none" stroke="#000000" stroke-miterlimit="10" points="1058.8463,929.9231 1055.4471,858.7242 1045.3414,805.6236 
		957.1467,656.7949 935.4655,758.9539 952.1857,783.7586 1023.4765,881.3241 1044.6064,911.7329 	"/>
	<polygon fill="none" stroke="#000000" stroke-miterlimit="10" points="1057.307,897.6816 1128.5753,814.8717 1176.9598,729.1268 
		1125.2679,705.8532 1045.3414,805.6236 1055.4471,858.7242 	"/>
	<polygon fill="none" stroke="#000000" stroke-miterlimit="10" points="1272.7493,981.7068 1259.3975,926.8301 1198.6411,906.0063 
		1165.2006,853.5795 1144.6528,786.3799 1128.5753,814.8717 1057.307,897.6816 1058.8463,929.9231 1060.2986,946.0178 
		1106.6929,988.4615 1208.9304,998.2433 	"/>
	<polygon fill="none" stroke="#000000" stroke-miterlimit="10" points="1272.7493,981.7068 1335.9554,998.2433 1434.1334,990.7713 
		1440.4724,989.9139 1486.5909,948.0214 1486.5909,897.6816 1415.9432,814.6268 1398.488,786.3799 1379.67,853.212 
		1345.2037,906.4963 1284.9373,926.8914 	"/>
	<polygon fill="none" stroke="#000000" stroke-miterlimit="10" points="1165.2006,853.5795 1258.6626,872.6884 1272.7493,892.3116 
		1285.856,872.9456 1379.67,853.212 1345.2037,906.4963 1284.9373,926.8914 1272.7493,981.7068 1259.3975,926.8301 
		1198.6411,906.0063 	"/>
	<polygon fill="none" stroke="#000000" stroke-miterlimit="10" points="1165.2006,853.5795 1270.7893,809.8495 1379.67,853.212 
		1285.856,872.9456 1272.7493,892.3116 1258.6626,872.6884 	"/>
	<polygon fill="none" stroke="#000000" stroke-miterlimit="10" points="920.0927,183.2992 851.1292,126.0951 830.4279,14.7492 
		1102.1168,134.6696 1166.6704,261.2046 1269.1969,325.5132 1369.7634,258.5098 1434.1334,126.3401 1708.0884,-0.4399 
		1688.0608,112.7434 1577.0824,207.0015 1481.3544,239.5234 1410.9823,365.5684 1269.2582,431.7145 1124.7682,367.6935 
		1054.8959,246.3217 959.7191,216.0048 	"/>
	<polygon fill="none" stroke="#000000" stroke-miterlimit="10" points="1165.2006,853.5795 1144.6528,786.3799 1207.3381,674.1275 
		1191.5978,613.9836 1250.3943,555.1871 1213.8302,451.1908 1147.1329,406.5422 1124.7682,367.6935 1269.2582,431.7145 
		1410.9823,365.5684 1389.8523,403.4186 1324.2574,450.2721 1289.347,554.8196 1350.3484,613.9836 1333.6282,672.5964 
		1398.488,786.3799 1379.67,853.212 1270.7893,809.8495 	"/>
	<polygon fill="none" stroke="#000000" stroke-miterlimit="10" points="1102.1168,134.6696 1095.1348,73.6683 1041.9729,47.6998 
		1102.1168,55.5393 1205.8069,111.7023 1269.2582,306.4044 1328.6365,109.4667 1431.2548,47.6998 1492.5011,36.9204 
		1440.3192,66.8086 1434.1334,126.3401 1369.7634,258.5098 1269.1969,325.5132 1166.6704,261.2046 	"/>
	<polygon fill="none" stroke="#000000" stroke-miterlimit="10" points="1219.3204,153.169 1267.2371,186.974 1316.0586,151.1834 
		1269.2582,306.4044 	"/>
	<polygon fill="none" stroke="#000000" stroke-miterlimit="10" points="1666.7471,193.4048 1697.4315,154.2684 1618.9321,171.457 
		1577.0824,207.0015 1481.3544,239.5234 1389.8523,403.4186 1324.2574,450.2721 1289.347,554.8196 1350.3484,613.9836 
		1433.3984,562.5367 1523.7981,570.6212 1604.9495,531.0561 1538.4746,467.7273 1486.1316,418.3015 1470.1462,401.765 
		1443.1366,401.765 1582.4109,301.6272 	"/>
	<polygon fill="none" stroke="#000000" stroke-miterlimit="10" points="1538.4746,467.7273 1446.2601,545.8165 1478.6332,410.5446 
		1486.1316,418.3015 	"/>
	<polygon fill="none" stroke="#000000" stroke-miterlimit="10" points="1486.5909,928.1086 1486.5909,897.6816 1498.1357,802.01 
		1587.923,649.629 1611.9315,753.7479 	"/>
	<polygon fill="none" stroke="#000000" stroke-miterlimit="10" points="1486.5909,897.6816 1415.9432,814.6268 1398.488,786.3799 
		1365.0227,727.6717 1416.5557,704.2607 1498.1357,802.01 	"/>
	<polygon fill="none" stroke="#000000" stroke-miterlimit="10" points="1416.5557,704.2607 1429.1725,676.0875 1410.9823,657.8973 
		1489.6226,605.3479 1523.7981,570.6212 1604.9495,531.0561 1587.923,649.629 1498.1357,802.01 	"/>
	<polygon fill="none" stroke="#000000" stroke-miterlimit="10" points="1410.9823,657.8973 1374.4182,652.2014 1392.7002,618.6383 
		1489.6226,605.3479 1523.7981,570.6212 1433.3984,562.5367 1350.3484,613.9836 1333.6282,672.5964 1365.0227,727.6717 
		1416.5557,704.2607 1429.1725,676.0875 	"/>
	<polygon fill="none" stroke="#000000" stroke-miterlimit="10" points="1410.9823,657.8973 1374.4182,652.2014 1392.7002,618.6383 
		1489.6226,605.3479 	"/>
</g>
</svg>
