<?xml version="1.0" encoding="UTF-8" standalone="no"?>
<svg
   xmlns:dc="http://purl.org/dc/elements/1.1/"
   xmlns:cc="http://creativecommons.org/ns#"
   xmlns:rdf="http://www.w3.org/1999/02/22-rdf-syntax-ns#"
   xmlns:svg="http://www.w3.org/2000/svg"
   xmlns="http://www.w3.org/2000/svg"
   xmlns:sodipodi="http://sodipodi.sourceforge.net/DTD/sodipodi-0.dtd"
   xmlns:inkscape="http://www.inkscape.org/namespaces/inkscape"
   version="1.1"
   id="Layer_1"
   x="0px"
   y="0px"
   viewBox="684.3449 -1.2959 1191.3276 1602.9106"
   enable-background="new 684.3449 -1.2959 1191.3276 1602.9106"
   xml:space="preserve"
   sodipodi:docname="lion2.svg"
   inkscape:version="1.0.2-2 (e86c870879, 2021-01-15)"><metadata
   id="metadata101"><rdf:RDF><cc:Work
       rdf:about=""><dc:format>image/svg+xml</dc:format><dc:type
         rdf:resource="http://purl.org/dc/dcmitype/StillImage" /><dc:title></dc:title></cc:Work></rdf:RDF></metadata><defs
   id="defs99" /><sodipodi:namedview
   pagecolor="#ffffff"
   bordercolor="#666666"
   borderopacity="1"
   objecttolerance="10"
   gridtolerance="10"
   guidetolerance="10"
   inkscape:pageopacity="0"
   inkscape:pageshadow="2"
   inkscape:window-width="1261"
   inkscape:window-height="1214"
   id="namedview97"
   showgrid="false"
   inkscape:zoom="0.62885601"
   inkscape:cx="595.66382"
   inkscape:cy="801.45532"
   inkscape:window-x="62"
   inkscape:window-y="0"
   inkscape:window-maximized="0"
   inkscape:current-layer="g94" />
<g
   id="g94">
	<path
   id="polygon2"
   style="fill:none;stroke:#000000;stroke-miterlimit:10"
   d="m 1154.6663,1599.5601 36.1965,-98.4841 -7.5332,-116.3068 89.4808,-116.4906 91.8697,117.2256 -5.3285,122.9213 36.3803,89.6647 12.678,-99.0353 25.7235,-97.0143 -53.8355,-249.7014 -69.086,-51.9981 h -78.6402 l -69.6373,50.3444 -49.0583,249.8853 27.0098,98.6678 z" />
	<path
   id="polygon4"
   style="fill:none;stroke:#000000;stroke-miterlimit:10"
   d="m 1272.8716,1268.0948 63.3287,81.4577 -62.1957,76.4354 -63.0072,-77.1704 z" />
	<path
   id="polygon6"
   style="fill:none;stroke:#000000;stroke-miterlimit:10"
   d="m 1306.6797,1100.3411 -34.298,103.5063 -36.7478,-103.5063 z" />
	<path
   id="polygon8"
   style="fill:none;stroke:#000000;stroke-miterlimit:10"
   d="m 1113.8761,1400.5708 -24.2535,74.2917 -104.3638,-155.4432 126.1675,-329.5054 8.3296,42.8724 92.9719,64.6761 120.6554,0.6126 92.4819,-64.3088 8.2683,-42.9949 129.9036,332.4453 -104.6089,153.7283 -25.2947,-74.9043 -53.8355,-249.7014 -69.086,-51.9981 h -78.6402 l -69.6373,50.3444 z" />
	<path
   id="polygon10"
   style="fill:none;stroke:#000000;stroke-miterlimit:10"
   d="m 1111.7637,988.9467 97.1667,9.2966 63.8189,-16.5365 63.2061,16.5365 98.178,-7.472 -8.2683,42.9949 -92.4819,64.3088 -120.6554,-0.6126 -92.9719,-64.6761 -8.3296,-42.8724 z" />
	<path
   id="polygon12"
   style="fill:none;stroke:#000000;stroke-miterlimit:10"
   d="m 1231.9124,992.2884 15.2358,23.8389 h 50.8346 l 16.2461,-23.5682 -41.4796,-10.8523 z" />
	<path
   id="polygon14"
   style="fill:none;stroke:#000000;stroke-miterlimit:10"
   d="m 985.2588,1319.4193 -5.0529,17.1184 -1.1942,-341.8466 65.5947,-82.9582 14.2399,18.1902 1.4523,16.0947 46.3943,42.4437 5.0708,0.4852 z" />
	<path
   id="polygon16"
   style="fill:none;stroke:#000000;stroke-miterlimit:10"
   d="m 1564.037,1323.2166 6.9361,6.9361 -2.8939,-335.8291 -68.7872,-83.9458 -12.7011,17.7308 v 19.9128 l -46.1185,41.8925 -6.339,0.8574 z" />
	<path
   id="polygon18"
   style="fill:none;stroke:#000000;stroke-miterlimit:10"
   d="m 1570.9731,1330.1527 1.6996,75.0115 128.8011,-210.0137 -45.016,-206.7065 -135.0148,-108.8179 -22.151,30.7517 2.1307,2.6004 66.6565,81.3454 z" />
	<path
   id="polygon20"
   style="fill:none;stroke:#000000;stroke-miterlimit:10"
   d="m 1701.4738,1195.1505 17.3939,58.3677 38.8303,-119.1854 -165.3549,-353.3356 -70.9001,98.6289 135.0148,108.8179 z" />
	<path
   id="polygon22"
   style="fill:none;stroke:#000000;stroke-miterlimit:10"
   d="m 1757.698,1134.3328 31.2356,44.2198 -39.8102,-277.8135 -137.1919,-146.9912 -19.5884,27.2493 z" />
	<path
   id="polygon24"
   style="fill:none;stroke:#000000;stroke-miterlimit:10"
   d="m 1611.9315,753.7479 137.1919,146.9912 74.8677,73.3978 -10.069,-147.3833 -137.0693,-101.4241 -77.8853,-152.4864 -11.0445,76.7859 z" />
	<path
   id="polygon26"
   style="fill:none;stroke:#000000;stroke-miterlimit:10"
   d="m 1793.0637,811.3195 1.5045,-69.6984 -84.3975,-136.7019 -105.2212,-73.8631 -5.982,41.787 77.8853,152.4864 z" />
	<path
   id="polygon28"
   style="fill:none;stroke:#000000;stroke-miterlimit:10"
   d="m 1794.5682,741.6211 80.3553,129.4136 -40.4226,-354.249 -194.9472,-74.5981 -70.7722,54.1576 36.168,34.7109 105.2212,73.8631 z" />
	<path
   id="polygon30"
   style="fill:none;stroke:#000000;stroke-miterlimit:10"
   d="m 1834.5009,516.7857 -52.3656,-79.0078 -101.424,-8.2683 -78.8241,-31.0519 -115.7556,19.8438 82.6499,78.0437 70.7722,-54.1576 z" />
	<path
   id="polygon32"
   style="fill:none;stroke:#000000;stroke-miterlimit:10"
   d="m 1486.1316,418.3015 -15.9854,-16.5365 h -27.0096 l 139.2743,-100.1378 84.3362,-108.2224 91.3183,41.8926 89.8484,205.2366 -65.7785,-2.7561 -101.424,-8.2683 -78.8241,-31.0519 z" />
	<path
   id="polygon34"
   style="fill:none;stroke:#000000;stroke-miterlimit:10"
   d="m 980.2059,1336.5377 v 66.4217 l -129.9954,-208.7276 42.0763,-204.3179 131.1897,-108.5898 21.1299,30.4088 -65.5947,82.9582 z" />
	<path
   id="polygon36"
   style="fill:none;stroke:#000000;stroke-miterlimit:10"
   d="m 850.2105,1194.2318 -13.7804,63.6962 -39.6877,-121.2678 155.4433,-352.9016 71.2908,97.5655 -131.1897,108.5898 z" />
	<path
   id="polygon38"
   style="fill:none;stroke:#000000;stroke-miterlimit:10"
   d="m 796.7424,1136.6602 -27.377,45.2611 33.8079,-274.1388 132.2922,-148.8286 16.7202,24.8047 z" />
	<path
   id="polygon40"
   style="fill:none;stroke:#000000;stroke-miterlimit:10"
   d="m 803.1733,907.7825 -68.3509,75.333 4.226,-145.1538 132.1084,-104.5476 72.0257,-153.9734 13.9642,77.3542 -21.6812,102.159 z" />
	<path
   id="polygon42"
   style="fill:none;stroke:#000000;stroke-miterlimit:10"
   d="m 761.665,820.0632 -3.5078,-66.0703 79.7428,-140.3768 98.6679,-74.0468 6.6146,39.8714 -72.0257,153.9734 z" />
	<path
   id="polygon44"
   style="fill:none;stroke:#000000;stroke-miterlimit:10"
   d="m 758.1572,753.9929 -73.1281,127.3312 29.1533,-350.758 188.8838,-79.3753 70.5558,51.9369 -37.0541,36.4416 -98.6679,74.0468 z" />
	<path
   id="polygon46"
   style="fill:none;stroke:#000000;stroke-miterlimit:10"
   d="m 714.1824,530.5661 49.8545,-81.3964 96.463,-8.452 79.1916,-34.1755 110.7207,17.1434 -48.2044,49.8816 -28.5858,29.5605 -70.5558,-51.9369 z" />
	<path
   id="polygon48"
   style="fill:none;stroke:#000000;stroke-miterlimit:10"
   d="m 764.0369,449.1697 -66.1461,6.6146 84.8875,-207.4415 88.3785,-42.8112 84.7037,104.5476 139.2743,96.463 h -28.1121 l -16.6105,17.1434 -110.7207,-17.1434 -79.1916,34.1755 z" />
	<path
   id="polygon50"
   style="fill:none;stroke:#000000;stroke-miterlimit:10"
   d="m 871.1568,205.5316 -30.8682,-37.8502 79.8041,15.6178 39.6264,32.7056 95.1768,30.3169 92.237,160.2205 66.6973,44.6486 36.5641,103.9963 -58.7965,58.7965 -84.3362,-48.3233 -91.1346,9.1869 -79.5591,-35.2779 37.0541,-36.4416 93.4007,-96.5855 h 28.1121 l -139.2743,-96.463 z" />
	<path
   id="polygon52"
   style="fill:none;stroke:#000000;stroke-miterlimit:10"
   d="m 1058.744,415.1031 34.9209,134.2044 -91.4571,-75.7403 z" />
	<path
   id="polygon54"
   style="fill:none;stroke:#000000;stroke-miterlimit:10"
   d="m 957.1467,656.7949 88.1947,148.8287 79.9265,-99.7704 -13.2291,-26.0369 19.3196,-19.3196 -79.9536,-51.474 -35.2778,-34.1755 -79.5591,-35.2779 z" />
	<path
   id="polygon56"
   style="fill:none;stroke:#000000;stroke-miterlimit:10"
   d="m 1131.3584,660.4967 37.3945,-5.968 -18.6972,-33.6855 -97.2802,-10.938 z" />
	<path
   id="polygon58"
   style="fill:none;stroke:#000000;stroke-miterlimit:10"
   d="m 1125.2679,705.8532 51.6919,23.2736 30.3783,-54.9993 -15.7403,-60.1439 -84.3362,-48.3233 -91.1346,9.1869 36.6485,35.058 97.2802,10.938 18.6972,33.6855 -37.3945,5.968 -19.3196,19.3196 z" />
	<path
   id="polygon60"
   style="fill:none;stroke:#000000;stroke-miterlimit:10"
   d="m 1058.8463,929.9231 -3.3992,-71.1989 -10.1057,-53.1006 -88.1947,-148.8287 -21.6812,102.159 16.7202,24.8047 71.2908,97.5655 21.1299,30.4088 z" />
	<path
   id="polygon62"
   style="fill:none;stroke:#000000;stroke-miterlimit:10"
   d="m 1057.307,897.6816 71.2683,-82.8099 48.3845,-85.7449 -51.6919,-23.2736 -79.9265,99.7704 10.1057,53.1006 z" />
	<path
   id="polygon64"
   style="fill:none;stroke:#000000;stroke-miterlimit:10"
   d="m 1272.7493,981.7068 -13.3518,-54.8767 -60.7564,-20.8238 -33.4405,-52.4268 -20.5478,-67.1996 -16.0775,28.4918 -71.2683,82.8099 1.5393,32.2415 1.4523,16.0947 46.3943,42.4437 102.2375,9.7818 z" />
	<path
   id="polygon66"
   style="fill:none;stroke:#000000;stroke-miterlimit:10"
   d="m 1272.7493,981.7068 63.2061,16.5365 98.178,-7.472 6.339,-0.8574 46.1185,-41.8925 v -50.3398 l -70.6477,-83.0548 -17.4552,-28.2469 -18.818,66.8321 -34.4663,53.2843 -60.2664,20.3951 z" />
	<path
   id="polygon68"
   style="fill:none;stroke:#000000;stroke-miterlimit:10"
   d="m 1165.2006,853.5795 93.462,19.1089 14.0867,19.6232 13.1067,-19.366 93.814,-19.7336 -34.4663,53.2843 -60.2664,20.3951 -12.188,54.8154 -13.3518,-54.8767 -60.7564,-20.8238 z" />
	<path
   id="polygon70"
   style="fill:none;stroke:#000000;stroke-miterlimit:10"
   d="m 1165.2006,853.5795 105.5887,-43.73 108.8807,43.3625 -93.814,19.7336 -13.1067,19.366 -14.0867,-19.6232 z" />
	<path
   id="polygon72"
   style="fill:none;stroke:#000000;stroke-miterlimit:10"
   d="m 920.0927,183.2992 -68.9635,-57.2041 -20.7013,-111.3459 271.6889,119.9204 64.5536,126.535 102.5265,64.3086 100.5665,-67.0034 64.37,-132.1697 273.955,-126.78 -20.0276,113.1833 -110.9784,94.2581 -95.728,32.5219 -70.3721,126.045 -141.7241,66.1461 -144.49,-64.021 -69.8723,-121.3718 -95.1768,-30.3169 z" />
	<path
   id="polygon74"
   style="fill:none;stroke:#000000;stroke-miterlimit:10"
   d="m 1165.2006,853.5795 -20.5478,-67.1996 62.6853,-112.2524 -15.7403,-60.1439 58.7965,-58.7965 -36.5641,-103.9963 -66.6973,-44.6486 -22.3647,-38.8487 144.49,64.021 141.7241,-66.1461 -21.13,37.8502 -65.5949,46.8535 -34.9104,104.5475 61.0014,59.164 -16.7202,58.6128 64.8598,113.7835 -18.818,66.8321 -108.8807,-43.3625 z" />
	<path
   id="polygon76"
   style="fill:none;stroke:#000000;stroke-miterlimit:10"
   d="m 1102.1168,134.6696 -6.982,-61.0013 -53.1619,-25.9685 60.1439,7.8395 103.6901,56.163 63.4513,194.7021 59.3783,-196.9377 102.6183,-61.7669 61.2463,-10.7794 -52.1819,29.8882 -6.1858,59.5315 -64.37,132.1697 -100.5665,67.0034 -102.5265,-64.3086 z" />
	<path
   id="polygon78"
   style="fill:none;stroke:#000000;stroke-miterlimit:10"
   d="m 1219.3204,153.169 47.9167,33.805 48.8215,-35.7906 -46.8004,155.221 z" />
	<path
   id="polygon80"
   style="fill:none;stroke:#000000;stroke-miterlimit:10"
   d="m 1666.7471,193.4048 30.6844,-39.1364 -78.4994,17.1886 -41.8497,35.5445 -95.728,32.5219 -91.5021,163.8952 -65.5949,46.8535 -34.9104,104.5475 61.0014,59.164 83.05,-51.4469 90.3997,8.0845 81.1514,-39.5651 -66.4749,-63.3288 -52.343,-49.4258 -15.9854,-16.5365 h -27.0096 l 139.2743,-100.1378 z" />
	<path
   id="polygon82"
   style="fill:none;stroke:#000000;stroke-miterlimit:10"
   d="m 1538.4746,467.7273 -92.2145,78.0892 32.3731,-135.2719 7.4984,7.7569 z" />
	<path
   id="polygon84"
   style="fill:none;stroke:#000000;stroke-miterlimit:10"
   d="m 1486.5909,928.1086 v -30.427 l 11.5448,-95.6716 89.7873,-152.381 24.0085,104.1189 z" />
	<path
   id="polygon86"
   style="fill:none;stroke:#000000;stroke-miterlimit:10"
   d="m 1486.5909,897.6816 -70.6477,-83.0548 -17.4552,-28.2469 -33.4653,-58.7082 51.533,-23.411 81.58,97.7493 z" />
	<path
   id="polygon88"
   style="fill:none;stroke:#000000;stroke-miterlimit:10"
   d="m 1416.5557,704.2607 12.6168,-28.1732 -18.1902,-18.1902 78.6403,-52.5494 34.1755,-34.7267 81.1514,-39.5651 -17.0265,118.5729 -89.7873,152.381 z" />
	<path
   id="polygon90"
   style="fill:none;stroke:#000000;stroke-miterlimit:10"
   d="m 1410.9823,657.8973 -36.5641,-5.6959 18.282,-33.5631 96.9224,-13.2904 34.1755,-34.7267 -90.3997,-8.0845 -83.05,51.4469 -16.7202,58.6128 31.3945,55.0753 51.533,-23.411 12.6168,-28.1732 z" />
	<path
   id="polygon92"
   style="fill:none;stroke:#000000;stroke-miterlimit:10"
   d="m 1410.9823,657.8973 -36.5641,-5.6959 18.282,-33.5631 96.9224,-13.2904 z" />
</g>
</svg>
